<svg id="Layer_1" data-name="Layer 1" xmlns="http://www.w3.org/2000/svg" viewBox="0 0 106.68 21"><defs><style>.cls-1{fill:#2b2b2b;}.cls-2{fill:#8be0af;}</style></defs><title>logo</title><g id="Canvas"><g id="numero_logo" data-name="numero logo"><g id="Vector"><path id="path0_fill" data-name="path0 fill" class="cls-1" d="M30.38.38l-.47,1.85,0,.13-.13,0-3,.94-.21.06-.06-.21-.43-1.45L26,1.53l.19-.06L30.08.13,30.47,0Zm73.85,18.19a8.24,8.24,0,0,1-6,2.43,8.12,8.12,0,0,1-5.94-2.43,8.62,8.62,0,0,1-2.43-6.09,8.57,8.57,0,0,1,2.45-6.06,8.53,8.53,0,0,1,11.89,0,8.66,8.66,0,0,1,2.43,6.09A8.59,8.59,0,0,1,104.23,18.57ZM94,17.06a5.9,5.9,0,0,0,4.32,1.83,5.8,5.8,0,0,0,4.3-1.81,6.62,6.62,0,0,0,1.74-4.57A6.53,6.53,0,0,0,102.6,8a5.86,5.86,0,0,0-4.32-1.83A5.8,5.8,0,0,0,94,7.94a6.53,6.53,0,0,0-1.74,4.57A6.57,6.57,0,0,0,94,17.06ZM15.68,20.64,6.79,9.34V5.7l8.53,11V4.28h2.19V20.7H15.74ZM33.3,19a6.7,6.7,0,0,1-5.09,2,6.8,6.8,0,0,1-5-1.91,7.42,7.42,0,0,1-1.83-5.26V4.32h2.23v9.4a5.48,5.48,0,0,0,1.23,3.83,4.45,4.45,0,0,0,3.45,1.34,4.39,4.39,0,0,0,3.4-1.32,5.37,5.37,0,0,0,1.19-3.74V4.32h2.23V13.7A7.49,7.49,0,0,1,33.3,19Zm7.62,1.68h-2V4.3h2.15l.06.11,5.64,8.45L52.43,4.4l.06-.11h2.15V20.72H52.4V8.28l-5.38,8-.06.11h-.32l-.06-.11-5.43-8V20.7h-.23Zm29.77,0H58.79V4.3h12V6.36H61v5h8.72v2.06H61V18.6h9.87v2.06h-.23Zm5.45,0h-2V4.3h7.09a8.05,8.05,0,0,1,2.68.43,5.31,5.31,0,0,1,2,1.23,4.22,4.22,0,0,1,1,1.49,5.3,5.3,0,0,1,.34,1.85,4.61,4.61,0,0,1-1.3,3.32,5.84,5.84,0,0,1-2.87,1.51l4.7,6.26.28.36H85.28l-.06-.09-4.57-6.13H76.4v6.19ZM76.34,6.4v6H81a4.39,4.39,0,0,0,2.85-.87,2.79,2.79,0,0,0,1-2.26,2.58,2.58,0,0,0-1-2.15A4.66,4.66,0,0,0,81,6.38h-4.7Z"/></g><g id="Vector-2" data-name="Vector"><path id="path1_fill" data-name="path1 fill" class="cls-2" d="M3.47,20.72h2v0h.28V4.3H4.15l0,0-.38.13L.21,5.66,0,5.72l.06.21L.49,7.38l.06.21.21-.06,2.7-.85Z"/></g></g></g></svg>