<svg width="29" height="40" viewBox="0 0 29 40" fill="none" xmlns="http://www.w3.org/2000/svg">
<path fill-rule="evenodd" clip-rule="evenodd" d="M0.0668175 1.69045C-0.105557 2.10164 0.0668175 2.60421 0.45466 2.78696L3.04028 3.92916C3.42812 4.11191 3.90215 3.92916 4.07453 3.51797L4.72093 1.82752L0.713222 0L0.0668175 1.69045Z" transform="translate(5.39539 18.6667)" fill="#06A978"/>
<mask id="mask0" mask-type="alpha" maskUnits="userSpaceOnUse" x="13" y="0" width="5" height="4">
<path fill-rule="evenodd" clip-rule="evenodd" d="M0 0H4.92553V3.53564H0V0Z" transform="translate(13.0388 0.384521)" fill="white"/>
</mask>
<g mask="url(#mask0)">
<path fill-rule="evenodd" clip-rule="evenodd" d="M4.85581 2.05576C5.03566 1.69576 4.85581 1.25576 4.45116 1.09576L1.75349 0.0557607C1.34884 -0.104239 0.854264 0.0957607 0.674419 0.455761L0 1.93576L4.1814 3.53576L4.85581 2.05576Z" transform="translate(13.0388 0.384277)" fill="#06A978"/>
</g>
<path fill-rule="evenodd" clip-rule="evenodd" d="M0.9566 14.0128L5.66602 15.8788C6.49452 16.2106 7.45385 15.8374 7.75909 15.0495L8.76202 12.8102C8.28236 12.4785 7.88991 12.0223 7.62827 11.5247C7.41024 11.0686 7.27943 10.6125 7.27943 10.0734C7.27943 9.5343 7.41024 9.03669 7.62827 8.62201C8.19515 7.50239 9.41611 6.71451 10.8115 6.71451C11.0295 6.71451 11.2475 6.75597 11.4656 6.75597L12.6865 4.01912C13.0354 3.23124 12.6429 2.31895 11.8144 2.02868L7.14861 0.121171C6.3201 -0.210569 5.36078 0.162638 5.01193 0.950521L0.128092 11.9809C-0.220754 12.7688 0.171697 13.6811 0.9566 14.0128Z" transform="translate(5.39539 3.33325)" fill="#06A978"/>
<mask id="mask1" mask-type="alpha" maskUnits="userSpaceOnUse" x="0" y="12" width="29" height="29">
<path fill-rule="evenodd" clip-rule="evenodd" d="M0 0H28.8293V27.9163H0V0Z" transform="translate(0 12.0837)" fill="white"/>
</mask>
<g mask="url(#mask1)">
<path fill-rule="evenodd" clip-rule="evenodd" d="M28.8294 12.1194C28.8294 6.22687 24.65 1.29552 19.0637 0C19.1912 0.334328 19.2769 0.710448 19.2769 1.12836C19.2769 1.79701 19.0637 2.42388 18.7221 2.96716C22.8162 4.09552 25.8441 7.77313 25.8441 12.1612C25.8441 17.4269 21.4941 21.6891 16.1206 21.6891C13.4338 21.6891 10.9603 20.6444 9.16912 18.806H11.4721C12.2824 18.806 12.9647 18.1369 12.9647 17.3433C12.9647 16.5493 12.2824 15.8806 11.4721 15.8806H1.49265C0.682353 15.8806 0 16.5493 0 17.3433C0 18.1369 0.682353 18.806 1.49265 18.806H5.37353C6.90882 21.1881 9.21176 22.9851 11.8985 23.9045C11.0882 24.6985 10.5338 25.7433 10.3206 26.8716C10.2353 27.4149 10.6618 27.9164 11.2162 27.9164H21.0676C21.6647 27.9164 22.049 27.4149 21.9632 26.8716C21.75 25.7433 21.196 24.6985 20.3853 23.9045C25.2897 22.1493 28.8294 17.5522 28.8294 12.1194Z" transform="translate(-0.00012207 12.0837)" fill="#06A978"/>
</g>
<path fill-rule="evenodd" clip-rule="evenodd" d="M2.36047 0C1.07294 0 0 1.06061 0 2.33333C0 3.60606 1.07294 4.66667 2.36047 4.66667C3.64799 4.66667 4.72093 3.60606 4.72093 2.33333C4.67801 1.06061 3.64799 0 2.36047 0Z" transform="translate(13.4884 11.3333)" fill="#06A978"/>
</svg>
