<svg width="46" height="44" viewBox="0 0 46 44" fill="none" xmlns="http://www.w3.org/2000/svg">
<mask id="mask0" mask-type="alpha" maskUnits="userSpaceOnUse" x="0" y="0" width="46" height="44">
<path fill-rule="evenodd" clip-rule="evenodd" d="M0 0H46V44H0V0Z" fill="white"/>
</mask>
<g mask="url(#mask0)">
<path fill-rule="evenodd" clip-rule="evenodd" d="M0 36.6337H3.74389C4.07463 36.6337 4.34557 36.3661 4.34557 36.036C4.34557 35.7073 4.07601 35.4393 3.74389 35.4393H0V32.6515H3.74389C4.07463 32.6515 4.34557 32.3844 4.34557 32.0547C4.34557 31.7251 4.07601 31.4571 3.74389 31.4571H0V28.6701H3.74389C4.07463 28.6701 4.34557 28.4026 4.34557 28.0725C4.34557 27.7433 4.07601 27.4753 3.74389 27.4753H0V24.6879H3.74389C4.07463 24.6879 4.34557 24.4203 4.34557 24.0907C4.34557 23.7615 4.07601 23.4935 3.74389 23.4935H0V20.7061H3.74389C4.07463 20.7061 4.34557 20.4386 4.34557 20.1089C4.34557 19.7793 4.07601 19.5117 3.74389 19.5117H0V11.5034H10.9649V38.5586C10.9649 41.5638 8.51081 44 5.48221 44C2.45453 44 0 41.5642 0 38.5586V36.6337ZM23.9054 41.1545C25.377 41.1545 26.5702 39.9702 26.5702 38.5092C26.5702 37.0481 25.377 35.8638 23.9054 35.8638C22.4335 35.8638 21.2402 37.0481 21.2402 38.5092C21.2402 39.9702 22.4335 41.1545 23.9054 41.1545ZM29.7791 37.11C30.4212 37.11 30.9419 36.5931 30.9419 35.9562C30.9419 35.3184 30.4212 34.8015 29.7791 34.8015C29.1369 34.8015 28.6162 35.3184 28.6162 35.9562C28.6162 36.5931 29.1369 37.11 29.7791 37.11ZM22.8148 34.8014C23.7895 34.8014 24.5803 34.0174 24.5803 33.0495C24.5803 32.082 23.7895 31.2976 22.8148 31.2976C21.8401 31.2976 21.0498 32.082 21.0498 33.0495C21.0498 34.0174 21.8401 34.8014 22.8148 34.8014ZM26.6452 22C27.7856 22 28.7102 21.0823 28.7102 19.9499C28.7102 18.8181 27.7856 17.9004 26.6452 17.9004C25.5045 17.9004 24.5803 18.8181 24.5803 19.9499C24.5803 21.0823 25.5045 22 26.6452 22ZM24.5803 27.2497C25.2864 27.2497 25.8586 26.6818 25.8586 25.9805C25.8586 25.2792 25.2864 24.7112 24.5803 24.7112C23.8733 24.7112 23.301 25.2792 23.301 25.9805C23.301 26.6818 23.8733 27.2497 24.5803 27.2497ZM33.7548 41.1437C34.4876 41.1437 35.0819 40.5543 35.0819 39.8265C35.0819 39.0987 34.4876 38.5093 33.7548 38.5093C33.0216 38.5093 32.4277 39.0987 32.4277 39.8265C32.4277 40.5543 33.0216 41.1437 33.7548 41.1437ZM35.035 35.864C36.1357 35.864 37.0277 34.9787 37.0277 33.8861C37.0277 32.794 36.1357 31.9082 35.035 31.9082C33.9347 31.9082 33.0427 32.794 33.0427 33.8861C33.0427 34.9787 33.9347 35.864 35.035 35.864ZM29.1778 32.4264C30.618 32.4264 31.7855 31.2676 31.7855 29.8381C31.7855 28.4085 30.618 27.2498 29.1778 27.2498C27.7375 27.2498 26.5701 28.4085 26.5701 29.8381C26.5701 31.2676 27.7375 32.4264 29.1778 32.4264ZM10.5835 44C12.0523 42.6431 12.9704 40.7076 12.9704 38.5586V27.5775L19.5497 18.3168V2.98645H18.6127C17.7801 2.98645 17.1081 2.31802 17.1081 1.49345C17.1081 0.67025 17.7819 0 18.6127 0H30.9976C31.8283 0 32.5022 0.67025 32.5022 1.49345C32.5022 2.31802 31.8302 2.98645 30.9976 2.98645H30.061V18.3168L45.1755 39.5922C46.8867 42.0267 45.848 44 42.8567 44H10.5835Z" fill="#06A978"/>
</g>
</svg>
