<svg width="40" height="29" viewBox="0 0 40 29" fill="none" xmlns="http://www.w3.org/2000/svg">
<path fill-rule="evenodd" clip-rule="evenodd" d="M17.5873 0V12.0167H0V16.6836H17.5873V28.7003H22.1873V16.6836H39.7751V12.0167H22.1873V0H17.5873Z" transform="translate(-0.00012207 0.0235596)" fill="#06A978"/>
<path fill-rule="evenodd" clip-rule="evenodd" d="M0 0V1.54398L13.8212 10.9878H16.0804L0 0Z" transform="translate(0 -0.00012207)" fill="#06A978"/>
<path fill-rule="evenodd" clip-rule="evenodd" d="M16.0804 0L0 10.9878H2.26032L16.0804 1.54398V0Z" transform="translate(23.6943 -0.00012207)" fill="#06A978"/>
<path fill-rule="evenodd" clip-rule="evenodd" d="M13.8212 0L0 9.44165V10.9878L16.0804 0H13.8212Z" transform="translate(0.000244141 17.76)" fill="#06A978"/>
<path fill-rule="evenodd" clip-rule="evenodd" d="M0 0V8.16189L11.836 0H0Z" transform="translate(0 17.76)" fill="#06A978"/>
<path fill-rule="evenodd" clip-rule="evenodd" d="M0 0L11.7905 8.13235V0.0118148H18.4608V8.13235L30.2524 0H0Z" transform="translate(4.76147 0.0235596)" fill="#06A978"/>
<path fill-rule="evenodd" clip-rule="evenodd" d="M0 8.13235H11.7915L0 0V8.13235Z" transform="translate(23.2224 20.5916)" fill="#06A978"/>
<path fill-rule="evenodd" clip-rule="evenodd" d="M0 8.16189H11.836L0 0V8.16189Z" transform="translate(0 2.82556)" fill="#06A978"/>
<path fill-rule="evenodd" clip-rule="evenodd" d="M0 8.13235H11.7905V0L0 8.13235Z" transform="translate(4.76147 20.5916)" fill="#06A978"/>
<path fill-rule="evenodd" clip-rule="evenodd" d="M0 0L11.836 8.16189V0H0Z" transform="translate(27.9385 17.76)" fill="#06A978"/>
<path fill-rule="evenodd" clip-rule="evenodd" d="M0 8.16189H11.836V0L0 8.16189Z" transform="translate(27.9385 2.82556)" fill="#06A978"/>
<path fill-rule="evenodd" clip-rule="evenodd" d="M0 0L16.0804 10.9878V9.44165L2.26032 0H0Z" transform="translate(23.6943 17.76)" fill="#06A978"/>
</svg>
