<svg width="43" height="42" viewBox="0 0 43 42" fill="none" xmlns="http://www.w3.org/2000/svg">
<mask id="mask0" mask-type="alpha" maskUnits="userSpaceOnUse" x="0" y="0" width="43" height="42">
<path fill-rule="evenodd" clip-rule="evenodd" d="M0 0H43V42H0V0Z" fill="white"/>
</mask>
<g mask="url(#mask0)">
<path fill-rule="evenodd" clip-rule="evenodd" d="M41.6548 0C40.9145 0 40.3116 0.597305 40.3116 1.33371C40.3116 9.59068 37.7504 13.7775 32.6966 13.7775H26.6646C26.3345 9.26962 25.4842 3.55588 23.2908 3.55588C23.0614 3.55588 22.6812 3.40749 22.2787 3.25161C21.6062 2.99121 20.7719 2.66734 19.82 2.66641C19.0149 2.66641 18.5455 3.03508 18.0922 3.39251C17.8514 3.58102 17.6021 3.77796 17.2786 3.9422C16.4612 4.35755 16.0238 4.37058 15.3005 4.39017C15.007 4.3986 14.6825 4.40883 14.2903 4.44614C13.6836 4.50398 13.3591 4.80264 13.1936 5.04251C12.7243 5.72193 12.9763 6.67862 13.0055 6.78595C13.0507 6.94183 13.1814 7.05845 13.3395 7.09491C13.5012 7.13128 13.6706 7.07438 13.7806 6.95307C13.7928 6.93902 14.1475 6.56856 14.9724 6.66277C15.4859 6.72155 16.3823 7.06595 17.1441 7.39543C16.4933 7.55592 15.6524 7.7641 14.7955 7.98618C14.5932 8.03754 14.454 8.22137 14.4606 8.42854C14.4673 8.63571 14.6177 8.81118 14.8227 8.8513C16.2016 9.12287 17.1328 9.16393 17.812 9.1957C18.492 9.2256 18.8231 9.24893 19.1005 9.41036C17.8336 11.1874 17.1958 12.7423 16.8798 13.7764H10.3051C5.24948 13.7783 2.68822 9.58958 2.68822 1.33449C2.68822 0.598085 2.08626 0.000780586 1.34506 0.000780586C0.602907 7.80586e-05 0 0.59832 0 1.33465V32.3084C0 32.7993 0.400653 33.1969 0.895471 33.1969C1.39029 33.1969 1.79189 32.7994 1.79189 32.3084V11.1475C2.19073 11.9688 2.6422 12.6725 3.13505 13.2708V30.0852C3.13505 30.5752 3.5376 30.9747 4.03241 30.9747C4.52723 30.9747 4.92694 30.5753 4.92694 30.0852V14.9199C5.3615 15.2157 5.81203 15.4622 6.26916 15.6619V28.3073C6.26916 28.7973 6.6717 29.1959 7.16652 29.1959C7.66134 29.1959 8.06105 28.7974 8.06105 28.3073V16.2257C8.51063 16.3181 8.96022 16.3778 9.40705 16.4114V26.5294C9.40705 27.0203 9.8077 27.4189 10.3025 27.4189C10.7973 27.4189 11.197 27.0204 11.197 26.5294V16.445H12.5421V24.7515C12.5421 25.2424 12.9428 25.6409 13.4376 25.6409C13.9324 25.6409 14.332 25.2424 14.332 24.7515V16.445H16.2941C16.185 17.2869 16.1248 18.1772 16.1248 19.1162C16.1248 21.4177 16.4483 23.5316 17.0061 25.2862C16.9741 25.3133 16.9412 25.3339 16.9111 25.3627L11.6259 30.608C11.0945 31.1334 10.9693 31.9108 11.244 32.5568L7.78925 35.9866L6.24926 32.9888C6.08186 32.6603 5.67932 32.5324 5.34632 32.6976C5.0152 32.8637 4.88352 33.266 5.05194 33.5936L6.59076 36.5894L3.24322 37.114C2.87734 37.1719 2.6271 37.5135 2.68358 37.8765C2.73629 38.206 3.02217 38.4393 3.34667 38.4393C3.38144 38.4393 3.41535 38.4374 3.45295 38.4308L6.80048 37.9063L6.26806 41.2289C6.21071 41.591 6.46182 41.9335 6.82865 41.9905C6.8653 41.997 6.90015 41.9998 6.93493 41.9998C7.26132 41.9998 7.54633 41.7656 7.59801 41.4361L8.12847 38.1135L11.1477 39.6423C11.2456 39.6918 11.3509 39.7142 11.4525 39.7142C11.6971 39.7142 11.9331 39.5817 12.0526 39.3502C12.2209 39.0217 12.0902 38.6213 11.759 38.4543L8.73979 36.9255L12.1936 33.4984C12.4175 33.5918 12.6536 33.6403 12.8915 33.6403C13.3496 33.6403 13.8096 33.4648 14.1594 33.1186L18.6893 28.6229C18.9489 28.9467 19.2217 29.2267 19.5086 29.4591L17.0537 33.3146C16.8637 33.6113 16.8693 33.9902 17.0649 34.2824C17.2333 34.5325 17.5136 34.679 17.8098 34.679C17.8606 34.679 17.9104 34.6744 17.9603 34.6669C17.9716 34.6651 18.7476 34.5353 19.7004 34.4392L20.626 38.4329C20.721 38.8379 21.0822 39.1226 21.4997 39.1226C21.9164 39.1226 22.2785 38.8371 22.3744 38.4329L23.299 34.4392C24.249 34.5363 25.0212 34.6651 25.0325 34.6669C25.0824 34.6744 25.1312 34.679 25.183 34.679C25.4783 34.679 25.7596 34.5325 25.928 34.2824C26.1228 33.9913 26.1284 33.6132 25.9421 33.3183L23.4918 29.4591C23.7787 29.2296 24.0515 28.9467 24.3111 28.6229L28.8391 33.1168C29.189 33.4649 29.648 33.6395 30.107 33.6395C30.3459 33.6395 30.581 33.59 30.8049 33.4986L34.2606 36.9256L31.2404 38.4544C30.9093 38.6215 30.7805 39.0219 30.947 39.3504C31.0664 39.5819 31.3025 39.7144 31.547 39.7144C31.6486 39.7144 31.7549 39.692 31.8518 39.6425L34.8711 38.1137L35.4007 41.4363C35.4534 41.7657 35.7383 42 36.0637 42C36.0985 42 36.1334 41.9972 36.1681 41.9916C36.5359 41.9337 36.7852 41.5931 36.7287 41.2299L36.1973 37.9074L39.5458 38.4319C39.5825 38.4376 39.6173 38.4413 39.6511 38.4413C39.9756 38.4413 40.2616 38.2062 40.3142 37.8776C40.3725 37.5145 40.1205 37.1729 39.7546 37.1159L36.407 36.5905L37.9449 33.5946C38.1151 33.2661 37.9816 32.8648 37.6515 32.6987C37.3185 32.5316 36.9169 32.6614 36.7485 32.9899L35.2088 35.9868L31.7521 32.5578C32.0277 31.911 31.9026 31.1363 31.3712 30.6081L26.087 25.3638C26.0578 25.3358 26.0249 25.3143 25.991 25.2873C26.5497 23.5327 26.8733 21.4178 26.8733 19.1173C26.8733 18.9595 26.8714 17.9189 26.8131 16.4461H28.6679V24.7535C28.6679 25.2435 29.0677 25.643 29.5615 25.643C30.0572 25.643 30.4579 25.2435 30.4579 24.7535V16.4459H31.803V26.5313C31.803 27.0222 32.2027 27.4208 32.6975 27.4208C33.1913 27.4208 33.592 27.0223 33.592 26.5313V16.4114C34.0397 16.3769 34.4884 16.3171 34.9389 16.2257V28.3074C34.9389 28.7974 35.3387 29.196 35.8335 29.196C36.3273 29.196 36.7299 28.7975 36.7299 28.3074V15.6629C37.187 15.4632 37.6385 15.2159 38.0731 14.9209V30.0862C38.0731 30.5771 38.4728 30.9757 38.9676 30.9757C39.4614 30.9757 39.864 30.5772 39.864 30.0862V13.2718C40.3559 12.6726 40.8083 11.9698 41.2081 11.1485V32.3075C41.2081 32.7984 41.6097 33.1961 42.1036 33.1961C42.5993 33.1961 43 32.7985 43 32.3075V1.33472C42.9989 0.598241 42.397 0 41.6548 0Z" fill="#06A978"/>
</g>
</svg>
