<svg width="49" height="31" viewBox="0 0 49 31" fill="none" xmlns="http://www.w3.org/2000/svg">
<mask id="mask0" mask-type="alpha" maskUnits="userSpaceOnUse" x="0" y="0" width="49" height="31">
<path fill-rule="evenodd" clip-rule="evenodd" d="M0 0H49V31H0V0Z" fill="white"/>
</mask>
<g mask="url(#mask0)">
<path fill-rule="evenodd" clip-rule="evenodd" d="M0 1.69851L7.96945 0C7.84853 0.0559885 7.75292 0.0868393 7.69049 0.199959C9.66288 1.25231 11.1578 3.06109 13.3124 3.72952C14.6431 4.14258 15.8326 5.66512 17.1931 5.80167C18.9608 5.97991 21.0102 5.02468 22.8032 4.92756C23.5658 4.88643 24.306 4.99954 25.0568 5.07439C25.6091 5.12923 26.4465 5.00297 26.9178 5.28634C27.8408 5.84166 28.6456 7.47275 28.8632 8.49026C29.2237 8.35943 29.7085 8.28801 30.1039 8.22345C29.848 9.50376 29.8401 10.988 29.9144 12.3438C30.6118 12.4409 31.7473 12.582 32.2788 13.0396C32.3215 12.9836 32.3913 12.9019 32.4194 12.8602C32.389 13.5955 32.7023 14.2125 32.9098 14.9095C33.0127 15.2552 33.5678 17.1028 34.0645 16.1481C34.6246 16.3201 35.3057 15.6751 35.8861 15.5825C36.2826 15.5191 36.6954 15.5825 37.0745 15.6431C37.5514 15.7202 38.5711 15.8847 38.7713 16.4155C39.872 16.2932 40.3062 14.9009 40.7837 14.0685C41.2195 13.3081 41.7971 12.4712 42.4372 11.8718C42.7954 11.5371 44.0592 10.1968 44.4759 10.4778C45.3291 11.0537 43.5935 12.8671 43.2144 13.1961C43.67 13.1093 43.5491 13.435 43.8207 13.5715C44.2453 13.7852 44.468 13.7486 44.9343 13.8497C45.4545 13.9623 45.7447 14.1091 45.8746 14.701C46.6378 14.693 46.4371 13.7338 46.6497 13.2161C47.3038 13.2064 47.558 13.84 47.9736 14.2102C48.1361 14.3548 48.5591 14.477 48.6609 14.5816C48.8768 14.8032 48.8504 15.118 49 15.3706C47.9697 16.3692 47.3639 15.9362 46.144 16.1344C45.8645 16.1801 45.3741 16.496 45.139 16.3732C44.9579 16.2784 44.878 15.6905 44.652 15.502C44.1604 15.5517 43.7026 15.7613 43.6014 16.3304C43.5316 16.2464 43.4 16.2052 43.332 16.131C42.8494 16.4886 42.2982 16.808 41.8556 17.1393C41.5665 17.3559 41.3781 17.0656 41.4338 17.6912C41.4833 18.2477 41.6402 17.8763 41.8573 18.2111C42.2212 18.7716 42.1998 18.7699 41.4884 19.1395C41.0328 19.376 40.3708 19.244 39.9783 19.7108C40.0953 19.8908 40.2336 20.0645 40.4406 20.1501C40.449 20.4604 40.2668 20.6243 39.9698 20.5781C39.8326 20.7946 39.575 20.9214 39.2668 20.9351C39.1858 21.0117 39.2483 21.018 39.1262 21.078C39.7736 22.5839 37.5711 21.2831 37.0599 21.6361C36.2219 22.2143 37.2984 24.4853 37.8484 23.7311C38.0739 23.8985 38.3343 23.7957 38.5396 23.6443C39.0362 24.3973 38.7038 24.5521 38.7083 25.3331C38.7111 25.8855 39.165 26.6237 39.8084 26.5751C39.8495 27.5561 39.0458 27.8634 38.7775 28.7032C38.4957 29.5871 39.115 30.0281 38.2134 30.6828C37.9389 30.4515 37.5655 30.4532 37.2275 30.5029C37.3501 31.5867 36.3248 30.5874 36.0953 30.4069C35.5054 29.9419 35.4137 30.5177 34.8901 30.2652C34.6398 30.1452 34.6297 29.8824 34.6117 29.6356C34.5487 28.7764 35.1336 28.2331 34.123 27.6183C33.6269 27.3167 32.9655 27.343 32.434 27.1219C31.8508 26.8796 31.4464 26.5266 30.8576 26.2615C29.9571 25.8564 29.0286 25.505 28.1506 25.0486C27.7069 24.8178 27.3048 24.8006 26.9521 24.6247C26.6917 24.4955 26.3543 24.1122 26.0416 23.9254C25.1518 23.3952 24.2362 22.7685 23.3684 22.1937C22.9905 21.9429 22.7031 21.5767 22.2925 21.367C21.9568 21.1945 21.8291 21.2853 21.5417 21.0163C21.0535 20.5592 21.2262 20.121 21.1008 19.6371C20.986 19.1961 20.914 19.2406 20.6244 18.9104C19.8674 18.0472 19.6711 15.7613 18.1042 15.9327C18.1318 16.0716 18.0496 16.2784 18.0823 16.4161C16.8956 15.9613 15.8444 15.3888 14.8202 14.6364C14.2663 14.2296 13.3012 13.7526 13.3034 13.0082C12.2725 12.8225 11.2135 12.1598 10.3597 11.5691C9.54759 11.0075 8.98292 11.0823 7.98913 11.0623C8.10611 11.18 8.32602 11.6136 8.17135 11.7867C7.88902 12.1038 7.68992 11.6365 7.47733 11.5822C6.74338 11.3931 6.72594 11.5388 6.37049 12.1478C6.28557 12.2935 6.17871 12.5866 6.05385 12.6957C5.88794 12.8414 5.65904 12.6923 5.50718 12.8476C5.36377 12.9939 4.79404 13.7526 4.7423 13.9246C4.52071 14.6627 5.85363 16.0498 4.9622 16.2647C4.76311 16.3127 3.9791 16.0938 3.68102 16.0664C3.35819 16.0373 2.80365 16.0361 2.55618 15.9236L0 1.69851Z" fill="#06A978"/>
</g>
</svg>
