<svg width="40" height="40" viewBox="0 0 40 40" fill="none" xmlns="http://www.w3.org/2000/svg">
<mask id="mask0" mask-type="alpha" maskUnits="userSpaceOnUse" x="0" y="0" width="40" height="40">
<path fill-rule="evenodd" clip-rule="evenodd" d="M0 0H40V40H0V0Z" fill="white"/>
</mask>
<g mask="url(#mask0)">
<path fill-rule="evenodd" clip-rule="evenodd" d="M26.6337 31.8182H35C35.9609 31.8045 36.8441 32.6759 36.8441 33.6363C36.8441 34.5968 35.9609 35.4682 35 35.4545H26.8182C25.8664 35.5027 24.9559 34.6809 24.9073 33.7286C24.8591 32.7763 25.6814 31.8663 26.6337 31.8182ZM4.81549 29.0909H13.1819C14.1428 29.0772 15.0259 29.9486 15.0259 30.909C15.0259 31.8695 14.1428 32.7409 13.1819 32.7272H5.00003C4.04821 32.7754 3.13776 31.9536 3.08958 31.0013C3.04094 30.049 3.86321 29.139 4.81549 29.0909ZM26.6337 26.3637H35C35.9609 26.35 36.8441 27.2214 36.8441 28.1819C36.8441 29.1423 35.9609 30.0137 35 30H26.8182C25.8664 30.0482 24.9559 29.2264 24.9073 28.2741C24.8591 27.3219 25.6814 26.4119 26.6337 26.3637ZM3.75 21.8182C1.67636 21.8182 0 23.4946 0 25.5682V36.2641C0 38.3382 1.67636 40.0001 3.75 40.0001H14.4318C16.5059 40.0001 18.1818 38.3382 18.1818 36.2641V25.5682C18.1818 23.4946 16.5059 21.8182 14.4318 21.8182H3.75ZM29.3041 4.91449L30.9091 6.51994L32.5145 4.91449C33.2791 4.2904 34.2286 4.1954 34.9695 4.77949C35.7763 5.48858 35.7204 6.8404 35.0854 7.48585L33.4804 9.09085L35.0854 10.6959C35.7809 11.364 35.7936 12.6113 35.1113 13.2936C34.4295 13.9754 33.1823 13.9627 32.5145 13.2668L30.9091 11.6618L29.3041 13.2668C28.6359 13.9627 27.3886 13.9754 26.7063 13.2936C26.0245 12.6113 26.0373 11.364 26.7332 10.6959L28.3382 9.09085L26.7332 7.48585C26.0273 6.4604 26.0923 5.61903 26.8154 4.80858C27.6391 4.26221 28.5791 4.18903 29.3041 4.91449ZM9.0627 3.15314C10.0336 3.13814 10.9241 4.02905 10.9091 4.99996V7.27269H13.1818C14.1427 7.25905 15.0259 8.13041 15.0259 9.09087C15.0259 10.0513 14.1427 10.9227 13.1818 10.909H10.9091V13.1818C10.9227 14.1422 10.0518 15.0259 9.09088 15.0259C8.13043 15.0259 7.25907 14.1422 7.2727 13.1818V10.909H4.99997C4.03952 10.9227 3.15588 10.0513 3.15588 9.09087C3.15588 8.13041 4.03952 7.25905 4.99997 7.27269H7.2727V4.99996C7.25816 4.04814 8.11088 3.16814 9.0627 3.15314ZM25.5682 0C23.4946 0 21.8182 1.67591 21.8182 3.75V14.4459C21.8182 16.52 23.4946 18.1818 25.5682 18.1818H36.2501C38.3241 18.1818 40.0001 16.52 40.0001 14.4459V3.75C40.0001 1.67591 38.3241 0 36.2501 0H25.5682Z" fill="#06A978"/>
</g>
</svg>
