<svg width="49" height="27" viewBox="0 0 49 27" fill="none" xmlns="http://www.w3.org/2000/svg">
<mask id="mask0" mask-type="alpha" maskUnits="userSpaceOnUse" x="0" y="0" width="49" height="27">
<path fill-rule="evenodd" clip-rule="evenodd" d="M0 0H49V27H0V0Z" fill="white"/>
</mask>
<g mask="url(#mask0)">
<path fill-rule="evenodd" clip-rule="evenodd" d="M41.2303 23.6735H39.2344V19.1915C39.2344 19.1915 39.6645 18.2966 40.2323 18.2966C40.7927 18.2966 41.2253 19.1915 41.2253 19.1915L41.2303 23.6735ZM31.3418 23.6736H17.6631V12.0126C17.6631 8.9959 24.5037 6.15625 24.5037 6.15625C24.5037 6.15625 31.3418 8.74512 31.3418 12.0126V23.6736ZM9.77302 23.6735H7.77222V19.1915C7.77222 19.1915 8.20728 18.2966 8.77016 18.2966C9.3355 18.2966 9.7681 19.1915 9.7681 19.1915L9.77302 23.6735ZM47.7366 23.6736L47.1934 2.82244L47.9087 1.33009H43.9439L44.7575 2.80277L44.5019 14.1736H41.1049V11.9659C41.1049 11.9659 42.1225 11.1865 42.1225 9.64988C42.1225 7.62402 39.463 6.25214 38.9345 6.00137V5.42606H38.6371V6.08742C38.3889 6.23985 37.9415 6.51767 37.5704 6.82253V0H11.4296V6.81761C11.0609 6.51521 10.6185 6.23739 10.3653 6.08496V5.42606H10.0655V5.99645C9.53208 6.25214 6.87499 7.62156 6.87499 9.64988C6.87499 11.1865 7.89506 11.9659 7.89506 11.9659V14.1687H4.49812L4.24986 2.80031L5.061 1.32763H1.09626L1.81154 2.81998L1.26832 23.6711H0V27H49V23.6736H47.7366Z" fill="#06A978"/>
</g>
</svg>
