<svg width="42" height="38" viewBox="0 0 42 38" fill="none" xmlns="http://www.w3.org/2000/svg">
<mask id="mask0" mask-type="alpha" maskUnits="userSpaceOnUse" x="0" y="0" width="43" height="38">
<path fill-rule="evenodd" clip-rule="evenodd" d="M0 0H41.9998V37.7318H0V0Z" transform="translate(0.000244141 0.268066)" fill="white"/>
</mask>
<g mask="url(#mask0)">
<path fill-rule="evenodd" clip-rule="evenodd" d="M31.871 23.9464C31.2508 22.1653 30.5291 20.4216 29.708 18.7249C30.5298 17.0304 31.2515 15.2895 31.871 13.5105C32.753 13.7075 33.572 13.9257 34.321 14.1649C34.2727 14.5618 34.3077 14.9651 34.4253 15.3472C34.4778 15.5154 34.5457 15.6779 34.6283 15.8327C34.8894 16.3267 35.2919 16.7313 35.784 16.9938C35.9387 17.0762 36.1004 17.1444 36.2663 17.1979C36.8095 17.3668 37.3905 17.3668 37.933 17.1979C38.0996 17.1458 38.262 17.0776 38.416 16.9938C38.6827 16.8496 38.9263 16.6645 39.137 16.4449C39.9406 16.9481 40.4782 17.7876 40.6 18.732C40.6 20.7305 37.1973 22.7572 31.871 23.9464ZM30.8 35.7967C29.974 36.2822 28.8533 36.0078 27.916 35.5926C27.9727 35.3716 28.0007 35.1451 28 34.917C28.0007 34.6335 27.958 34.3506 27.874 34.0789C27.8222 33.9115 27.7536 33.7489 27.671 33.5941C27.4099 33.0994 27.0081 32.6955 26.516 32.433C26.3613 32.3499 26.1989 32.2824 26.033 32.2289C25.4905 32.06 24.9095 32.06 24.3663 32.2289C24.2004 32.2824 24.0387 32.3499 23.884 32.433C23.8063 32.4752 23.737 32.5174 23.6663 32.5596C23.086 32.0178 22.505 31.4267 21.9443 30.8004C23.1672 29.374 24.3033 27.8744 25.347 26.31C27.2188 26.1763 29.0815 25.9343 30.9253 25.5859C32.571 30.8215 32.5283 34.7904 30.8 35.7967ZM21 29.745C20.125 28.7176 19.2661 27.6057 18.424 26.4094C19.299 26.4516 20.16 26.4728 21 26.4728C21.84 26.4728 22.7003 26.4516 23.5753 26.4094C22.736 27.6057 21.8771 28.7176 21 29.745ZM17.647 33.1859C14.875 35.6137 12.523 36.5637 11.2 35.7967C9.87696 35.0296 9.51996 32.5033 10.22 28.8722C10.4391 27.7618 10.7198 26.6647 11.06 25.5859C12.9073 25.9308 14.7721 26.1728 16.646 26.31C17.6939 27.8751 18.8342 29.374 20.062 30.8004C19.3046 31.6434 18.4982 32.4393 17.647 33.1859ZM1.40002 18.732C1.40002 16.7335 4.80202 14.7068 10.129 13.5176C10.7485 15.2987 11.4709 17.0417 12.292 18.7391C11.4744 20.4329 10.752 22.171 10.129 23.9465C4.80202 22.7572 1.40002 20.7305 1.40002 18.732ZM11.2001 1.67417C12.9221 0.667869 16.3731 2.62417 20.0551 6.66342C18.8322 8.08983 17.6961 9.58942 16.6531 11.1531C14.7785 11.2868 12.9137 11.5288 11.0671 11.8779C10.7801 10.9631 10.5491 10.0905 10.3671 9.27417C10.8816 9.01591 11.3023 8.60283 11.5711 8.09194C11.6544 7.93713 11.7223 7.77457 11.7741 7.60639C11.9421 7.06102 11.9421 6.47694 11.7741 5.93157C11.7223 5.76339 11.6544 5.60083 11.5711 5.44602C11.31 4.95131 10.9075 4.54739 10.4161 4.28491C10.2705 4.20609 10.1179 4.13994 9.96106 4.08787C9.99466 3.13787 10.449 2.25191 11.2001 1.67417ZM21 7.71899C21.868 8.7464 22.736 9.85825 23.5753 11.0475C21.8491 10.9771 20.1565 10.9771 18.4296 11.0475C19.2675 9.85403 20.1243 8.74429 21 7.71899ZM28.903 17.1344C28.511 16.3744 28.0973 15.6144 27.671 14.8615C27.23 14.0944 26.7813 13.3556 26.334 12.6519C27.783 12.7856 29.1753 12.9826 30.4913 13.2289C30.044 14.4956 29.512 15.8044 28.903 17.1344ZM27.671 22.6023C28.105 21.8423 28.518 21.0823 28.91 20.3293C29.505 21.6382 30.037 22.9471 30.485 24.2349C29.169 24.4812 27.7753 24.6782 26.327 24.8112C26.7883 24.0942 27.237 23.3553 27.671 22.6023ZM15.547 21.8986C14.938 20.8501 14.371 19.7875 13.853 18.732L15.547 15.5653C16.156 14.5097 16.779 13.4894 17.43 12.5112C19.8079 12.3634 22.1921 12.3634 24.5693 12.5112C25.2 13.4612 25.8272 14.4788 26.453 15.5653C27.062 16.6138 27.6283 17.6764 28.147 18.732C27.6283 19.7875 27.0641 20.8431 26.453 21.8986C25.844 22.9542 25.221 23.9746 24.5693 24.9527C22.1921 25.1005 19.8079 25.1005 17.43 24.9527C16.8 24.0027 16.1721 22.9844 15.547 21.8986ZM13.09 17.1344C12.495 15.8256 11.963 14.5167 11.515 13.2289C12.831 12.9826 14.224 12.7856 15.673 12.6519C15.211 13.3696 14.763 14.1085 14.329 14.8615C13.895 15.6144 13.4813 16.3815 13.09 17.1344ZM13.0971 20.3293C13.4891 21.0893 13.9021 21.8493 14.3291 22.6023C14.7701 23.3693 15.2181 24.1082 15.6661 24.8112C14.2171 24.6782 12.8241 24.4812 11.5081 24.2349C11.7111 23.6649 11.9281 23.0808 12.1661 22.4897L13.0971 20.3293ZM24.353 4.27775C26.4943 2.4059 28.3913 1.40664 29.75 1.40664C30.1168 1.3975 30.4794 1.48687 30.8 1.66701C32.1223 2.43405 32.48 4.96035 31.78 8.59146C31.5609 9.7012 31.2802 10.7983 30.94 11.8778C29.0927 11.5322 27.2279 11.2902 25.3533 11.1529C24.3054 9.58861 23.1651 8.08972 21.938 6.66331C22.6954 5.82027 23.5011 5.02368 24.353 4.27775ZM39.816 15.1923C39.8727 14.9692 39.9007 14.7398 39.9 14.5097C39.9 12.9552 38.6463 11.6949 37.1 11.6949C36.8172 11.6935 36.5365 11.7364 36.2663 11.8215C36.099 11.8715 35.9373 11.9398 35.784 12.0256C35.4123 12.2234 35.091 12.5055 34.846 12.849C34.069 12.6027 33.222 12.3775 32.312 12.1734C32.6522 11.0848 32.9329 9.97855 33.152 8.85896C33.985 4.53822 33.397 1.54747 31.5 0.449697C29.603 -0.648081 26.733 0.330067 23.4283 3.21525C22.5736 3.96681 21.7609 4.76551 20.993 5.60785C16.702 0.935253 12.901 -0.943636 10.5 0.449697C9.744 0.89303 8.82 1.86414 8.561 4.01044C8.4616 4.02592 8.3629 4.04985 8.267 4.08081C8.1004 4.13429 7.9387 4.20255 7.784 4.28488C7.2919 4.54736 6.8894 4.95129 6.629 5.44599C6.5457 5.60081 6.4778 5.76336 6.426 5.93155C6.3413 6.20247 6.2986 6.48536 6.3 6.76896C6.2986 8.28473 7.4949 9.52818 9.002 9.57673C9.177 10.393 9.408 11.2656 9.695 12.1734C3.521 13.5667 0 15.9453 0 18.7319C0 21.5186 3.514 23.8971 9.688 25.2904C9.3471 26.3791 9.0671 27.4853 8.848 28.6049C8.015 32.9256 8.603 35.9164 10.5 37.0141C11.0243 37.3132 11.6186 37.4659 12.222 37.4575C13.965 37.4575 16.149 36.3597 18.571 34.2486C19.4229 33.4949 20.2356 32.699 21.0063 31.863C21.574 32.4823 22.1473 33.0664 22.722 33.6075C22.5092 34.0114 22.3986 34.4604 22.4 34.9171C22.4 36.4716 23.6537 37.7319 25.2 37.7319C25.4821 37.7326 25.7628 37.6897 26.033 37.6053C26.1989 37.5518 26.3613 37.4835 26.516 37.4012C26.7911 37.2576 27.0382 37.0648 27.244 36.8312H27.2503C28.035 37.2175 28.8911 37.4314 29.7633 37.4575C30.3709 37.468 30.9708 37.3146 31.5 37.0141C33.9003 35.6208 34.188 31.3634 32.305 25.2904C38.4783 23.8971 42 21.5186 42 18.7319C42 17.4512 41.265 16.269 39.816 15.1923Z" transform="translate(0.000244141 0.268066)" fill="#06A978"/>
</g>
<path fill-rule="evenodd" clip-rule="evenodd" d="M0.0700823 4.18626C0.0910818 4.29826 0.119081 4.41027 0.14708 4.51527C0.18068 4.62448 0.219879 4.73228 0.266078 4.83728C0.291977 4.90448 0.322076 4.97029 0.357076 5.03329C0.371075 5.07529 0.392075 5.11029 0.406074 5.14529C0.413074 5.15229 0.420074 5.15929 0.420074 5.16629C0.476073 5.2573 0.525072 5.3483 0.58807 5.4393C0.637769 5.5247 0.696568 5.60451 0.763066 5.67731C0.843564 5.78231 0.930362 5.88311 1.02206 5.97832C2.39263 7.34056 4.60668 7.34056 5.97794 5.97832C6.06894 5.88031 6.15994 5.78231 6.24394 5.67731C6.30624 5.60241 6.36223 5.5233 6.41193 5.4393C6.47493 5.3483 6.52393 5.2573 6.57993 5.16629C6.57993 5.15929 6.58693 5.15229 6.59393 5.14529C6.60793 5.11029 6.62893 5.07529 6.64293 5.03329C6.67723 4.97029 6.70803 4.90448 6.73393 4.83728C6.77942 4.73228 6.81932 4.62448 6.85292 4.51527C6.88092 4.41027 6.90892 4.29826 6.92992 4.18626C6.93692 4.15126 6.94392 4.10926 6.95092 4.07426C6.98452 3.88455 7.00132 3.69275 6.99992 3.50024C6.99992 3.40224 6.99292 3.30423 6.98592 3.20623C6.97892 3.10823 6.96492 3.01722 6.95092 2.92622C6.94392 2.89122 6.93692 2.84922 6.92992 2.81422C6.90892 2.70221 6.88092 2.59021 6.85292 2.48521C6.81932 2.376 6.77942 2.2682 6.73393 2.1632C6.70803 2.096 6.67723 2.03019 6.64293 1.96719C6.62893 1.92519 6.60793 1.89019 6.59393 1.85519C6.58693 1.84819 6.57993 1.84119 6.57993 1.83419C6.52393 1.74318 6.47493 1.65218 6.41193 1.56118C6.36223 1.47718 6.30624 1.39807 6.24394 1.32317C6.07804 1.11456 5.88765 0.926259 5.67695 0.763154C5.60415 0.696652 5.52435 0.63785 5.43826 0.588148C5.31086 0.499246 5.17436 0.422243 5.03297 0.357141C4.96997 0.32214 4.90417 0.292739 4.83697 0.266138C4.73197 0.219937 4.62418 0.180736 4.51498 0.147135C4.40998 0.119134 4.29798 0.0911328 4.18599 0.0701321L4.07399 0.0491315C3.91229 0.0211306 3.7478 0.00713014 3.584 0.00713014C3.556 0.00152996 3.528 -0.000570104 3.5 0.000129918C3.30751 -0.00127013 3.11571 0.0155304 2.92602 0.0491315L2.81402 0.0701321C2.70202 0.0911328 2.59002 0.119134 2.48503 0.147135C2.37513 0.180736 2.26803 0.219937 2.16303 0.266138C2.09583 0.292739 2.03004 0.32214 1.96704 0.357141C1.82494 0.422243 1.68914 0.499246 1.56105 0.588148C1.47565 0.63785 1.39585 0.696652 1.32305 0.763154C1.11236 0.924159 0.924062 1.11246 0.763066 1.32317C0.696568 1.39597 0.637769 1.47578 0.58807 1.56118C0.525072 1.65218 0.476073 1.74318 0.420074 1.83419C0.420074 1.84119 0.413074 1.84819 0.406074 1.85519C0.392075 1.89019 0.371075 1.92519 0.357076 1.96719C0.322076 2.03019 0.291977 2.096 0.266078 2.1632C0.219879 2.2682 0.18068 2.376 0.14708 2.48521C0.119081 2.59021 0.0910818 2.70221 0.0700823 2.81422C0.0630825 2.84922 0.0560826 2.89122 0.0490828 2.92622C0.0350831 3.01722 0.0210835 3.10823 0.0140836 3.20623C0.00708379 3.30423 8.39533e-05 3.40224 8.39533e-05 3.50024C-0.00131601 3.69275 0.0147836 3.88455 0.0490828 4.07426C0.0560826 4.10926 0.0630825 4.15126 0.0700823 4.18626Z" transform="translate(17 16)" fill="#06A978"/>
</svg>
