<svg width="39" height="59" viewBox="0 0 39 59" fill="none" xmlns="http://www.w3.org/2000/svg">
<mask id="mask0" mask-type="alpha" maskUnits="userSpaceOnUse" x="0" y="0" width="39" height="59">
<path fill-rule="evenodd" clip-rule="evenodd" d="M0 0H39V59H0V0Z" fill="white"/>
</mask>
<g mask="url(#mask0)">
<path fill-rule="evenodd" clip-rule="evenodd" d="M37.9951 51.7418L37.6513 50.306L36.8266 49.9006L37.0367 47.9524L35.8989 47.6252C35.345 46.92 35.8682 46.5693 35.8682 46.5693L35.5769 46.3536L35.6983 45.6764L36.1372 45.402L35.2645 44.9992V40.0711L35.4421 39.6683L35.2645 39.4761L35.5494 38.2325L35.9717 37.6615C35.2396 34.5656 34.3669 33.7287 33.5881 33.833V31.4117L33.9318 31.149C36.0216 28.8763 34.2826 26.7743 34.2826 26.7743C31.821 24.5446 31.5891 22.526 31.5667 22.0339C31.6517 21.972 31.7041 21.8794 31.7041 21.7699C31.7041 21.6129 31.5948 21.4819 31.4511 21.4564V19.7429H31.7277C31.7526 19.7827 31.7942 19.8048 31.8433 19.8048C31.9194 19.8048 31.9813 19.7429 31.9813 19.6621C31.9813 19.5832 31.9194 19.5252 31.8433 19.5252C31.7942 19.5252 31.7526 19.5474 31.7277 19.5891H31.4511V19.1394C31.4511 19.1198 31.4447 19.1048 31.4351 19.0938C31.4875 19.0749 31.5258 19.0208 31.5258 18.9595C31.5258 18.8806 31.4658 18.8194 31.3917 18.8194C31.3137 18.8194 31.2511 18.8806 31.2511 18.9595C31.2511 19.0208 31.2888 19.0742 31.3418 19.0938C31.3297 19.1055 31.3265 19.1192 31.3265 19.1394V19.5891H31.0505C31.0288 19.5474 30.9821 19.5252 30.9361 19.5252C30.8588 19.5252 30.7956 19.5839 30.7956 19.6621C30.7956 19.7429 30.8588 19.8048 30.9361 19.8048C30.9815 19.8048 31.0288 19.7827 31.0505 19.7429H31.3265V21.4551C31.1821 21.4806 31.0754 21.6122 31.0754 21.7686C31.0754 21.8612 31.1131 21.9433 31.1751 22.0046V21.959V21.9629C31.2888 24.2317 28.4516 26.1825 28.4516 26.1825C26.0903 28.6227 28.2177 30.8928 28.2177 30.8928L28.6368 31.2735L28.8113 31.4332H29.0994V36.3814H28.5218V33.5801C28.1794 33.6336 27.8574 33.7646 27.5731 33.9692C27.5885 33.6277 27.5373 33.3227 27.4581 33.0593C27.2831 32.4662 26.9739 32.0902 26.9739 32.0902C26.5567 31.7128 26.2104 31.3374 25.9274 30.9795C25.6904 30.6856 25.4923 30.3995 25.3351 30.1309C24.6924 29.0535 24.5902 28.1495 24.5755 27.8425H24.2273C24.2612 29.8096 21.8245 31.57 21.8245 31.57C20.3615 33.0711 20.8375 34.4972 21.254 35.2311H21.2393H20.7378H20.7295C20.6835 35.1418 20.6203 35.0238 20.5647 34.8843C20.5091 34.7631 20.4567 34.6236 20.4145 34.4698C20.1756 33.6414 20.0191 32.2472 21.3831 31.2709H21.3844C21.6374 31.0942 21.9204 30.932 22.2143 30.6882H22.2194C22.4066 30.5337 22.5925 30.3382 22.7822 30.0859C23.3278 29.4394 24.0625 28.3816 23.9699 27.4221H24.1903H24.7646L24.7378 22.4022L24.458 20.426L24.0989 20.4149L24.0491 20.4175L21.7147 12.2091C21.7147 11.9692 21.6054 11.745 21.4272 11.5768V11.1154L21.6923 9.19264C21.9561 8.89021 22.1139 8.4796 22.1139 8.02531C22.1139 7.73071 22.0475 7.45435 21.9338 7.21646C21.9057 7.16301 21.884 7.10956 21.8501 7.05938C21.5179 6.23944 21.2361 5.56225 21.024 5.0845C21.2266 4.96327 21.3677 4.73384 21.3677 4.47639C21.3677 4.14073 21.1365 3.85525 20.819 3.79072V2.00551H21.4144C21.4738 2.09155 21.5683 2.14499 21.6706 2.14499C21.8373 2.14499 21.9747 2.01073 21.9747 1.83866C21.9747 1.6705 21.836 1.53037 21.6706 1.53037C21.5683 1.53037 21.4725 1.58903 21.4144 1.67115H20.819V0.700007C20.819 0.6609 20.8043 0.627008 20.7749 0.598981C20.8975 0.557268 20.9889 0.441904 20.9889 0.307638C20.9889 0.137525 20.8483 0 20.6842 0C20.5142 0 20.3832 0.137525 20.3832 0.307638C20.3832 0.441904 20.4676 0.557268 20.5858 0.598981C20.5596 0.627008 20.5474 0.6609 20.5474 0.700007V1.67115H19.9488C19.8913 1.58968 19.8012 1.53037 19.6945 1.53037C19.5291 1.53037 19.3943 1.67115 19.3943 1.83866C19.3943 2.01138 19.5291 2.14499 19.6945 2.14499C19.8012 2.14499 19.8919 2.0922 19.9488 2.00551H20.5474V3.79072C20.2312 3.85525 19.9929 4.14073 19.9929 4.47639C19.9929 4.70386 20.0996 4.902 20.267 5.03105C19.9405 5.7441 19.6262 6.55881 19.4575 7.00593C19.2627 7.2888 19.1477 7.64076 19.1477 8.02466C19.1477 8.48611 19.3189 8.90586 19.5872 9.20307L19.8734 11.1147V11.5508C19.683 11.7189 19.5636 11.9503 19.5636 12.2078L17.1787 20.761H16.7455C16.7487 21.0243 16.2318 23.8341 16.1277 24.9232C16.0875 25.1044 16.0875 25.2472 16.0983 25.3508C16.1367 25.5998 16.2689 25.6637 16.2689 25.6637C16.2689 25.6637 17.8386 27.0324 17.1889 29.0477C17.0279 29.5345 16.741 30.0612 16.2689 30.6152V33.8278V34.0826H15.8843H15.662V33.7365V30.3186L15.8287 30.3212H15.8639C15.867 30.3186 15.8773 30.3076 15.8843 30.2997C16.0306 30.1485 16.1552 29.994 16.2683 29.8428C16.4625 29.5717 16.6056 29.3025 16.7097 29.0483C17.2668 27.6099 16.474 26.4314 16.2683 26.1603C16.237 26.1186 16.2184 26.1016 16.2184 26.1016C16.152 26.043 16.0868 25.985 16.0236 25.9289C15.7661 25.693 15.531 25.4551 15.3138 25.2283C13.3774 23.1263 13.4719 21.4108 13.4719 21.4108H13.4585C13.5217 21.3502 13.5652 21.2622 13.5652 21.1677C13.5652 21.0106 13.454 20.8848 13.3109 20.8575V19.1433H13.5876C13.6093 19.1824 13.654 19.2078 13.7032 19.2078C13.7792 19.2078 13.8412 19.1466 13.8412 19.0677C13.8412 18.9895 13.7792 18.9249 13.7032 18.9249C13.654 18.9249 13.6099 18.9504 13.5876 18.9901H13.3109V18.5417C13.3109 18.5248 13.302 18.5104 13.2949 18.4967C13.3461 18.4798 13.3863 18.4237 13.3863 18.3657C13.3863 18.2862 13.3256 18.2223 13.2515 18.2223C13.1742 18.2223 13.111 18.2869 13.111 18.3657C13.111 18.4237 13.1512 18.4798 13.2074 18.4967C13.1953 18.5104 13.187 18.5241 13.187 18.5417V18.9901H12.9161C12.8899 18.9497 12.8445 18.9249 12.796 18.9249C12.7219 18.9249 12.6554 18.9901 12.6554 19.0677C12.6554 19.1466 12.7219 19.2078 12.796 19.2078C12.8445 19.2078 12.8899 19.1824 12.9161 19.1433H13.187V20.8594C13.0432 20.8868 12.9346 21.0132 12.9346 21.1697C12.9346 21.2811 12.9889 21.3854 13.0752 21.4388C13.2176 23.6334 11.2512 24.7218 10.3293 25.5307C9.93703 25.8774 9.65145 26.32 9.47576 26.6974C9.79967 27.1008 10.2245 27.4867 10.6666 27.9605C10.8743 28.1762 11.018 28.3802 11.2135 29.0516C11.3049 29.3651 11.3598 29.7294 11.3323 30.1348C11.2889 30.7983 11.0257 31.5518 10.3095 32.3267H10.2731V32.9114V34.8876H9.70001V32.8214V32.3261H6.48264H4.67144C4.98449 33.367 5.13271 34.2091 5.17615 34.8876C5.32948 37.2046 4.29834 37.6635 4.29834 37.6635V41.5409C3.68949 40.8044 3.38539 40.2725 3.22567 39.8971H3.26145C3.31064 39.8561 3.34131 39.7909 3.34131 39.7192C3.34131 39.6038 3.25825 39.5067 3.15092 39.4865V38.2103H3.35664C3.37325 38.2383 3.40839 38.2553 3.44353 38.2553C3.49975 38.2553 3.54638 38.2103 3.54638 38.1543C3.54638 38.0982 3.49975 38.048 3.44353 38.048C3.40839 38.048 3.37389 38.0682 3.35664 38.0982H3.15092V37.7691C3.15092 37.7521 3.14581 37.741 3.14006 37.7326C3.18159 37.7156 3.21225 37.6772 3.21225 37.6289C3.21225 37.5729 3.16242 37.5279 3.10364 37.5279C3.04551 37.5279 3.00143 37.5729 3.00143 37.6289C3.00143 37.6765 3.02954 37.715 3.06787 37.7326C3.06595 37.7417 3.05701 37.7521 3.05701 37.7691V38.0982H2.85129C2.83787 38.0682 2.80274 38.048 2.76696 38.048C2.7069 38.048 2.66218 38.0982 2.66218 38.1543C2.66218 38.2097 2.7069 38.2553 2.76696 38.2553C2.80274 38.2553 2.83915 38.2383 2.85129 38.2103H3.05701V39.4507C3.05445 39.4669 3.05445 39.4761 3.05445 39.4872C2.94968 39.5126 2.86854 39.6045 2.86854 39.7198C2.86854 39.8013 2.9139 39.8737 2.96948 39.918C2.71138 40.9035 2.03098 41.3538 2.03098 41.3538C-1.00303 43.1749 1.48985 44.7646 1.48985 44.7646C1.60996 46.4755 0 47.6924 0 47.6924V59H39V51.9321L37.9951 51.7418Z" fill="#E5A03E"/>
</g>
</svg>
