<svg width="47" height="60" viewBox="0 0 47 60" fill="none" xmlns="http://www.w3.org/2000/svg">
<rect width="47" height="60" fill="black" fill-opacity="0"/>
<rect width="47" height="60" fill="black" fill-opacity="0"/>
<path fill-rule="evenodd" clip-rule="evenodd" d="M11.6267 0L0 19.9973L11.6267 39.9947L23.2588 60L34.8895 39.9947L46.5169 19.9973L34.8895 0H11.6267ZM6.63577 19.9973L14.9439 5.71198H31.5622L39.8717 19.9973L31.5622 34.2826H14.9439L6.63577 19.9973Z" fill="#06A978"/>
<path fill-rule="evenodd" clip-rule="evenodd" d="M22.7838 24.7619H25.6317V23.8095H22.7838V24.7619ZM17.0878 24.7619H19.9358V23.8095H17.0878V24.7619ZM22.7838 20.9524H25.6317V20H22.7838V20.9524ZM17.0878 20.9524H19.9358V20H17.0878V20.9524ZM22.7838 18.0953H25.6317V17.1429H22.7838V18.0953ZM22.7838 14.2857H25.6317V13.3333H22.7838V14.2857ZM20.8683 10.4762V17.1778L15.1892 17.2175L15.2854 28.5714L27.5304 28.5311L27.5088 10.4762H20.8678H20.8683Z" fill="#43D394"/>
</svg>
