<svg width="90" height="60" viewBox="0 0 90 60" fill="none" xmlns="http://www.w3.org/2000/svg">
<rect width="90" height="60" fill="black" fill-opacity="0"/>
<path fill-rule="evenodd" clip-rule="evenodd" d="M33.8973 21.8034L39.991 20.3972V34.6472C40.8348 35.3034 41.6785 36.0534 42.4285 36.8972C43.1785 37.6472 43.9285 38.4909 44.5848 39.3347C45.241 38.4909 45.991 37.7409 46.741 36.8972C47.491 36.1472 48.3348 35.3972 49.1785 34.6472V20.3034L55.2723 21.7097C57.0535 22.0847 58.4598 20.1159 57.5223 18.6159L46.366 0.990925C46.1785 0.615925 45.8035 0.334675 45.4285 0.147175C44.491 -0.227825 43.366 0.147175 42.8973 0.897175L31.741 18.5222C30.7098 20.3034 32.116 22.2722 33.8973 21.8034Z" fill="#43D394"/>
<path fill-rule="evenodd" clip-rule="evenodd" d="M20.3035 29.8661L21.7098 23.7723C22.0848 21.9911 20.116 20.5848 18.616 21.5223L0.991047 32.6786C0.616047 32.8661 0.334797 33.2411 0.147297 33.6161C-0.227703 34.5536 0.147297 35.6786 0.897297 36.1473L18.5223 47.3036C20.116 48.3348 22.0848 46.9286 21.616 45.0536L20.2098 38.9598C28.4598 39.1473 35.3973 44.3026 38.3973 51.5223C39.3348 47.8661 40.8348 44.3973 42.991 41.3036C37.8348 34.4598 29.5848 30.0536 20.3035 29.8661Z" fill="#06A978"/>
<rect width="50.625" height="38.4375" fill="black" fill-opacity="0" transform="translate(39.375 20.7721)"/>
<mask id="mask0" mask-type="alpha" maskUnits="userSpaceOnUse" x="39" y="21" width="51" height="39">
<path fill-rule="evenodd" clip-rule="evenodd" d="M39.9907 21.1735H89.1326V59.2096H39.9907V21.1735Z" fill="white"/>
</mask>
<g mask="url(#mask0)">
<path fill-rule="evenodd" clip-rule="evenodd" d="M88.9282 33.616C88.7407 33.241 88.4595 32.866 88.0854 32.6785L70.4595 21.5223C68.8667 20.491 66.897 21.8973 67.3657 23.7723L68.772 29.866C53.3032 30.1473 40.7407 42.4276 39.9907 57.8035C39.9907 58.5535 40.5532 59.2098 41.397 59.2098H47.7729C48.522 59.2098 49.0845 58.6473 49.1792 57.8963C49.8345 47.491 58.3657 39.241 68.8667 38.9598L67.4604 45.0535C67.0845 46.8348 69.0532 48.241 70.5532 47.3035L88.1782 36.1473C89.0229 35.6785 89.397 34.5535 88.9282 33.616Z" fill="#06A978"/>
</g>
</svg>
