<svg width="81" height="60" viewBox="0 0 81 60" fill="none" xmlns="http://www.w3.org/2000/svg">
<rect width="81" height="60" fill="black" fill-opacity="0"/>
<path fill-rule="evenodd" clip-rule="evenodd" d="M52.5789 18.5714V20H52.8945H57.9476H58.2632V18.5714H52.5789Z" fill="#06A978"/>
<path fill-rule="evenodd" clip-rule="evenodd" d="M57.9476 51.4286H52.8945H52.5789V52.8572H58.2632V51.4286H57.9476Z" fill="#06A978"/>
<path fill-rule="evenodd" clip-rule="evenodd" d="M54 48.5714H56.8421V24.2857H54V48.5714Z" fill="#06A978"/>
<rect width="81" height="60" fill="black" fill-opacity="0"/>
<path fill-rule="evenodd" clip-rule="evenodd" d="M51.7327 23.7386C51.0387 23.7386 50.4753 23.1689 50.4753 22.4672V19.2431H29.9713V22.4672C29.9713 23.1689 29.4098 23.7386 28.7139 23.7386H28.3899V48.8777H28.7139C29.4098 48.8777 29.9713 49.4473 29.9713 50.1491V53.3732H31.7275V30.3263C31.7275 29.6245 32.289 29.0549 32.983 29.0549H47.4636C48.1595 29.0549 48.7209 29.6245 48.7209 30.3263V53.3732H50.4753V50.1491C50.4753 49.4473 51.0387 48.8777 51.7327 48.8777H52.0567V23.7386H51.7327Z" fill="#43D394"/>
<mask id="mask0" mask-type="alpha" maskUnits="userSpaceOnUse" x="0" y="0" width="81" height="61">
<path fill-rule="evenodd" clip-rule="evenodd" d="M0 60H80.4477V0.362183H0V60Z" fill="white"/>
</mask>
<g mask="url(#mask0)">
<path fill-rule="evenodd" clip-rule="evenodd" d="M34.2409 53.3657H46.2068V31.5921H34.2409V53.3657Z" fill="#06A978"/>
<path fill-rule="evenodd" clip-rule="evenodd" d="M72.6119 3.99127H48.3009L60.8614 14.8269H77.124L72.6119 3.99127Z" fill="#06A978"/>
<path fill-rule="evenodd" clip-rule="evenodd" d="M49.2428 8.145L44.0754 3.68677L40.2242 0.362183L36.373 3.68491L31.2038 8.145L21.2905 16.7003H28.7149H51.7336H59.158L49.2428 8.145Z" fill="#43D394"/>
<path fill-rule="evenodd" clip-rule="evenodd" d="M74.469 32.0406C74.469 32.7442 73.9075 33.3119 73.2117 33.3119H67.3502C66.6543 33.3119 66.0929 32.7442 66.0929 32.0406V25.2425C66.0929 24.5407 66.6543 23.9711 67.3502 23.9711H73.2117C73.9075 23.9711 74.469 24.5407 74.469 25.2425V32.0406ZM74.469 47.2804C74.469 47.9803 73.9075 48.5499 73.2117 48.5499H67.3502C66.6543 48.5499 66.0929 47.9803 66.0929 47.2804V40.4805C66.0929 39.7787 66.6543 39.2109 67.3502 39.2109H73.2117C73.9075 39.2109 74.469 39.7787 74.469 40.4805V47.2804ZM63.6647 17.3684C63.8322 17.6849 63.8746 18.0609 63.7476 18.4108C63.5635 18.9097 63.094 19.2429 62.5675 19.2429H61.3396V22.467C61.3396 23.1688 60.7782 23.7384 60.0823 23.7384H59.7583V48.8775H60.0823C60.7782 48.8775 61.3396 49.4472 61.3396 50.1489V53.373H77.7587V17.3684H63.6647Z" fill="#06A978"/>
<path fill-rule="evenodd" clip-rule="evenodd" d="M27.133 51.4188H21.9471H21.6213V53.3734H27.457V51.4188H27.133Z" fill="#06A978"/>
<path fill-rule="evenodd" clip-rule="evenodd" d="M7.83491 3.99127L3.32468 14.8269H19.5854L32.146 3.99127H7.83491Z" fill="#06A978"/>
<path fill-rule="evenodd" clip-rule="evenodd" d="M23.2047 48.8777H25.8777V23.7385H23.2047V48.8777Z" fill="#06A978"/>
<path fill-rule="evenodd" clip-rule="evenodd" d="M14.3545 32.0406C14.3545 32.7442 13.793 33.3119 13.0971 33.3119H7.23569C6.53982 33.3119 5.97835 32.7442 5.97835 32.0406V25.2425C5.97835 24.5407 6.53982 23.9711 7.23569 23.9711H13.0971C13.793 23.9711 14.3545 24.5407 14.3545 25.2425V32.0406ZM14.3545 47.2804C14.3545 47.9803 13.793 48.5499 13.0971 48.5499H7.23569C6.53982 48.5499 5.97835 47.9803 5.97835 47.2804V40.4805C5.97835 39.7787 6.53982 39.2109 7.23569 39.2109H13.0971C13.793 39.2109 14.3545 39.7787 14.3545 40.4805V47.2804ZM20.3651 23.7384C19.671 23.7384 19.1077 23.1688 19.1077 22.467V19.2429H17.8817C17.3533 19.2429 16.8839 18.9097 16.6998 18.4108C16.5746 18.0609 16.6151 17.6849 16.7826 17.3684H2.68864V53.373H19.1077V50.1489C19.1077 49.4472 19.6692 48.8775 20.3651 48.8775H20.6891V23.7384H20.3651Z" fill="#06A978"/>
<path fill-rule="evenodd" clip-rule="evenodd" d="M79.0164 55.9142H60.0827H51.7323H47.4632H32.9845H28.7136H20.3651H1.43131H0.000923157V60.0002H80.4468V55.9142H79.0164Z" fill="#06A978"/>
<path fill-rule="evenodd" clip-rule="evenodd" d="M21.622 19.2429V21.1974H21.9479H27.1337H27.4577V19.2429H21.622Z" fill="#06A978"/>
</g>
</svg>
