<svg width="63" height="64" viewBox="0 0 63 64" fill="none" xmlns="http://www.w3.org/2000/svg">
<mask id="mask0" mask-type="alpha" maskUnits="userSpaceOnUse" x="1" y="1" width="60" height="23">
<path fill-rule="evenodd" clip-rule="evenodd" d="M1.39062 1.00018H60.7376V23.8515H1.39062V1.00018Z" fill="white"/>
</mask>
<g mask="url(#mask0)">
<path fill-rule="evenodd" clip-rule="evenodd" d="M57.6111 8.3284L60.1511 7.8454C60.9331 7.6964 60.9331 6.5764 60.1511 6.4274L32.2341 1.1104C31.4611 0.963403 30.6661 0.963403 29.8941 1.1104L1.97712 6.4274C1.19512 6.5764 1.19512 7.6964 1.97712 7.8454L15.4061 10.4044L14.2531 17.3284L14.1041 18.2184C14.0911 18.2954 14.0851 18.3714 14.0831 18.4484V18.4744C14.0831 18.5494 14.0891 18.6214 14.0981 18.6944C14.1001 18.7014 14.1021 18.7114 14.1021 18.7184C14.1361 18.9234 14.2071 19.1164 14.3131 19.2894C14.3171 19.2934 14.3191 19.2984 14.3201 19.3024C14.3481 19.3454 14.3761 19.3884 14.4081 19.4274C14.4101 19.4314 14.4121 19.4344 14.4151 19.4364C14.4471 19.4794 14.4821 19.5184 14.5181 19.5574C14.5291 19.5664 14.5401 19.5784 14.5521 19.5874C14.5781 19.6134 14.6041 19.6394 14.6321 19.6644C14.6471 19.6774 14.6641 19.6884 14.6811 19.7014C14.7071 19.7224 14.7331 19.7404 14.7591 19.7594C14.7761 19.7724 14.7941 19.7834 14.8111 19.7944C14.8391 19.8114 14.8691 19.8284 14.8991 19.8444C14.9161 19.8534 14.9341 19.8634 14.9531 19.8724C14.9851 19.8894 15.0181 19.9044 15.0521 19.9174C15.0691 19.9244 15.0861 19.9324 15.1021 19.9384C15.1471 19.9554 15.1921 19.9684 15.2381 19.9814C15.2451 19.9834 15.2511 19.9874 15.2591 19.9884L19.4341 21.0484L22.1921 21.7484L23.0921 21.9784L23.5341 22.0904L29.9001 23.7084C30.0701 23.7514 30.2401 23.7834 30.4131 23.8074C31.0101 23.8894 31.6201 23.8574 32.2081 23.7084L42.3021 21.1444L46.8501 19.9894C47.3031 19.8714 47.6661 19.5654 47.8601 19.1724C48.0071 18.8864 48.0621 18.5564 48.0071 18.2204L47.6121 15.8594L47.2161 13.4914L46.7011 10.4084L54.4871 8.9244L57.6111 8.3284Z" fill="#E5A03E"/>
</g>
<path fill-rule="evenodd" clip-rule="evenodd" d="M7.26956 39.8152H55.2256V37.7302H7.26956C6.69356 37.7302 6.22656 38.1972 6.22656 38.7722C6.22656 39.3482 6.69356 39.8152 7.26956 39.8152Z" fill="#FDD760"/>
<path fill-rule="evenodd" clip-rule="evenodd" d="M55.2256 33.5603H7.26956C6.69356 33.5603 6.22656 34.0273 6.22656 34.6033C6.22656 35.1793 6.69356 35.6453 7.26956 35.6453H55.2256V33.5603Z" fill="#FDD760"/>
<path fill-rule="evenodd" clip-rule="evenodd" d="M54.8583 50.1755H6.90234V52.2605H54.8583C55.4343 52.2605 55.9013 51.7935 55.9013 51.2185C55.9013 50.6425 55.4343 50.1755 54.8583 50.1755Z" fill="#FDD760"/>
<path fill-rule="evenodd" clip-rule="evenodd" d="M6.90234 56.4314H54.8583C55.4343 56.4314 55.9013 55.9644 55.9013 55.3884C55.9013 54.8134 55.4343 54.3464 54.8583 54.3464H6.90234V56.4314Z" fill="#FDD760"/>
<mask id="mask1" mask-type="alpha" maskUnits="userSpaceOnUse" x="0" y="26" width="63" height="38">
<path fill-rule="evenodd" clip-rule="evenodd" d="M0 26.166H62.128V63.6312H0V26.166Z" fill="white"/>
</mask>
<g mask="url(#mask1)">
<path fill-rule="evenodd" clip-rule="evenodd" d="M5.832 42.78C4.851 42.562 4.17 41.74 4.17 40.761V32.42C4.17 31.27 5.106 30.336 6.255 30.336H56.297C57.448 30.336 58.382 29.402 58.382 28.251C58.382 27.099 57.448 26.166 56.297 26.166H6.255C2.807 26.166 0 28.972 0 32.421V40.762C0 44.212 2.806 47.017 6.255 47.017H56.297C57.278 47.235 57.958 48.057 57.958 49.036V57.377C57.958 58.526 57.022 59.462 55.873 59.462H5.832C4.681 59.462 3.748 60.395 3.748 61.547C3.748 62.698 4.681 63.632 5.832 63.632H55.873C59.322 63.632 62.129 60.825 62.129 57.376V49.035C62.129 45.587 59.323 42.78 55.873 42.78H5.832Z" fill="#E5A03E"/>
</g>
</svg>
