<svg width="80" height="81" viewBox="0 0 80 81" fill="none" xmlns="http://www.w3.org/2000/svg">
<path fill-rule="evenodd" clip-rule="evenodd" d="M79.5626 1.40619V80.5938H65.8438V63.25C65.8438 62.0928 64.7874 61.0312 63.6249 61.0312H39.4063C38.2438 61.0312 37.1875 62.0928 37.1875 63.25V80.5938H23.4688V1.40619H79.5626V1.40619ZM70.4682 8.56265C70.4578 8.56258 70.4474 8.56258 70.437 8.56265C70.3849 8.56082 70.3328 8.56082 70.2807 8.56265C69.6798 8.55451 69.1013 8.78927 68.6772 9.21329C68.2532 9.63732 68.02 10.2144 68.0307 10.8126V17.0003C68.0017 17.8084 68.4181 18.5678 69.1165 18.9805C69.815 19.3931 70.684 19.3931 71.3824 18.9805C72.0808 18.5678 72.4973 17.8084 72.4682 17.0003V10.8126C72.4946 9.65747 71.623 8.67694 70.4682 8.56265H70.4682ZM61.1244 8.56265C61.114 8.56257 61.1036 8.56257 61.0932 8.56265C61.0412 8.56082 60.9891 8.56082 60.937 8.56265C60.3361 8.55451 59.7576 8.78927 59.3335 9.21329C58.9095 9.63732 58.6763 10.2144 58.687 10.8126V17.0003C58.6574 17.8088 59.0737 18.5687 59.7724 18.9817C60.471 19.3946 61.3404 19.3946 62.0391 18.9817C62.7377 18.5687 63.154 17.8088 63.1244 17.0003V10.8126C63.1508 9.65747 62.2792 8.67694 61.1244 8.56265H61.1244ZM51.7494 8.56265C51.739 8.56257 51.7286 8.56257 51.7182 8.56265C51.6662 8.56082 51.6141 8.56082 51.562 8.56265C50.9611 8.55451 50.3826 8.78927 49.9585 9.21329C49.5345 9.63732 49.3013 10.2144 49.312 10.8126V17.0003C49.2824 17.8088 49.6987 18.5687 50.3974 18.9817C51.096 19.3946 51.9654 19.3946 52.6641 18.9817C53.3627 18.5687 53.779 17.8088 53.7494 17.0003V10.8126C53.7758 9.65746 52.9042 8.67692 51.7494 8.56265H51.7494ZM42.4057 8.56265C42.3953 8.56257 42.3848 8.56257 42.3744 8.56265C42.3224 8.56082 42.2703 8.56082 42.2182 8.56265C41.6173 8.55451 41.0388 8.78927 40.6147 9.21329C40.1907 9.63732 39.9575 10.2144 39.9682 10.8126V17.0003C39.9392 17.8084 40.3556 18.5678 41.054 18.9805C41.7525 19.3931 42.6215 19.3931 43.3199 18.9805C44.0183 18.5678 44.4348 17.8084 44.4057 17.0003V10.8126C44.4321 9.65746 43.5605 8.67693 42.4057 8.56265H42.4057ZM32.9994 8.56265C32.989 8.56257 32.9786 8.56257 32.9682 8.56265C32.9162 8.56082 32.8641 8.56082 32.812 8.56265C32.2111 8.55451 31.6326 8.78927 31.2085 9.21329C30.7845 9.63732 30.5513 10.2144 30.562 10.8126V17.0003C30.5324 17.8088 30.9487 18.5687 31.6474 18.9817C32.346 19.3946 33.2154 19.3946 33.9141 18.9817C34.6127 18.5687 35.029 17.8088 34.9994 17.0003V10.8126C35.0258 9.65747 34.1542 8.67694 32.9994 8.56265H32.9994ZM70.4994 25.0627C70.4266 25.0592 70.3536 25.0592 70.2807 25.0627C69.6798 25.0546 69.1013 25.2894 68.6772 25.7134C68.2532 26.1374 68.02 26.7145 68.0307 27.3127V33.5001C68.0017 34.3082 68.4181 35.0676 69.1165 35.4802C69.815 35.8928 70.684 35.8928 71.3824 35.4802C72.0808 35.0676 72.4973 34.3082 72.4682 33.5001V27.3127C72.4961 26.1683 71.6418 25.192 70.4994 25.0627V25.0627ZM61.1557 25.0627C61.0829 25.0592 61.0099 25.0592 60.937 25.0627C60.3361 25.0546 59.7576 25.2894 59.3335 25.7134C58.9095 26.1374 58.6763 26.7145 58.687 27.3127V33.5001C58.6574 34.3085 59.0737 35.0685 59.7724 35.4814C60.471 35.8944 61.3404 35.8944 62.0391 35.4814C62.7377 35.0685 63.154 34.3085 63.1244 33.5001V27.3127C63.1523 26.1683 62.2981 25.1921 61.1557 25.0627V25.0627ZM51.7807 25.0627C51.7079 25.0592 51.6349 25.0592 51.562 25.0627C50.9611 25.0546 50.3826 25.2894 49.9585 25.7134C49.5345 26.1374 49.3013 26.7145 49.312 27.3127V33.5001C49.2824 34.3085 49.6987 35.0685 50.3974 35.4814C51.096 35.8944 51.9654 35.8944 52.6641 35.4814C53.3627 35.0685 53.779 34.3085 53.7494 33.5001V27.3127C53.7773 26.1683 52.9231 25.1921 51.7807 25.0627V25.0627ZM42.437 25.0627C42.3641 25.0592 42.2911 25.0592 42.2182 25.0627C41.6173 25.0546 41.0388 25.2894 40.6147 25.7134C40.1907 26.1374 39.9575 26.7145 39.9682 27.3127V33.5001C39.9392 34.3082 40.3556 35.0676 41.054 35.4802C41.7525 35.8928 42.6215 35.8928 43.3199 35.4802C44.0183 35.0676 44.4348 34.3082 44.4057 33.5001V27.3127C44.4336 26.1683 43.5794 25.1921 42.437 25.0627V25.0627ZM33.0307 25.0627C32.9579 25.0592 32.8849 25.0592 32.812 25.0627C32.2111 25.0546 31.6326 25.2894 31.2085 25.7134C30.7845 26.1374 30.5513 26.7145 30.562 27.3127V33.5001C30.5324 34.3085 30.9487 35.0685 31.6474 35.4814C32.346 35.8944 33.2154 35.8944 33.9141 35.4814C34.6127 35.0685 35.029 34.3085 34.9994 33.5001V27.3127C35.0273 26.1683 34.1731 25.1921 33.0307 25.0627V25.0627ZM70.4682 41.5313C70.4578 41.5312 70.4474 41.5312 70.437 41.5313C70.3849 41.5295 70.3328 41.5295 70.2807 41.5313C69.6798 41.5231 69.1013 41.7579 68.6772 42.1819C68.2532 42.6059 68.02 43.183 68.0307 43.7813V49.969C68.0017 50.7771 68.4181 51.5365 69.1165 51.9491C69.815 52.3618 70.684 52.3618 71.3824 51.9491C72.0808 51.5365 72.4973 50.7771 72.4682 49.969V43.7813C72.4946 42.6261 71.623 41.6456 70.4682 41.5313H70.4682ZM61.1244 41.5313C61.114 41.5312 61.1036 41.5312 61.0932 41.5313C61.0412 41.5295 60.9891 41.5295 60.937 41.5313C60.3361 41.5231 59.7576 41.7579 59.3335 42.1819C58.9095 42.6059 58.6763 43.183 58.687 43.7813V49.969C58.6574 50.7774 59.0737 51.5374 59.7724 51.9503C60.471 52.3633 61.3404 52.3633 62.0391 51.9503C62.7377 51.5374 63.154 50.7774 63.1244 49.969V43.7813C63.1508 42.6261 62.2792 41.6456 61.1244 41.5313H61.1244ZM51.7494 41.5313C51.739 41.5312 51.7286 41.5312 51.7182 41.5313C51.6662 41.5295 51.6141 41.5295 51.562 41.5313C50.9611 41.5231 50.3826 41.7579 49.9585 42.1819C49.5345 42.6059 49.3013 43.183 49.312 43.7813V49.969C49.2824 50.7774 49.6987 51.5374 50.3974 51.9503C51.096 52.3633 51.9654 52.3633 52.6641 51.9503C53.3627 51.5374 53.779 50.7774 53.7494 49.969V43.7813C53.7758 42.6261 52.9042 41.6456 51.7494 41.5313H51.7494ZM42.3744 41.5313C42.3224 41.5295 42.2703 41.5295 42.2182 41.5313C41.6173 41.5231 41.0388 41.7579 40.6147 42.1819C40.1907 42.6059 39.9575 43.183 39.9682 43.7813V49.969C39.9392 50.7771 40.3556 51.5365 41.054 51.9491C41.7525 52.3618 42.6215 52.3618 43.3199 51.9491C44.0183 51.5365 44.4348 50.7771 44.4057 49.969V43.7813C44.4308 42.6151 43.5417 41.6302 42.3744 41.5313V41.5313ZM32.812 41.5313C32.2111 41.5232 31.6326 41.758 31.2085 42.182C30.7845 42.606 30.5513 43.1831 30.562 43.7813V49.969C30.5324 50.7775 30.9487 51.5374 31.6474 51.9504C32.346 52.3634 33.2154 52.3634 33.9141 51.9504C34.6127 51.5374 35.029 50.7775 34.9994 49.969V43.7813C35.01 43.1939 34.7853 42.6264 34.3748 42.2042C33.9644 41.782 33.4021 41.5399 32.812 41.5313V41.5313Z" fill="#E5A03E"/>
<path fill-rule="evenodd" clip-rule="evenodd" d="M19.0312 25.0939V80.5938H0.4375V25.0939H19.0312V25.0939ZM14.4682 30.469C14.3953 30.4654 14.3223 30.4654 14.2494 30.469C13.6541 30.461 13.0804 30.6915 12.6574 31.1086C12.2343 31.5258 11.9972 32.0946 11.9994 32.6875V38.8751C11.9709 39.6829 12.3875 40.4417 13.0857 40.854C13.7839 41.2663 14.6525 41.2663 15.3507 40.854C16.0489 40.4417 16.4655 39.6829 16.437 38.8751V32.6875C16.4484 31.555 15.5983 30.5972 14.4682 30.469V30.469ZM5.09322 30.469C5.02033 30.4654 4.94731 30.4654 4.87442 30.469C4.27906 30.461 3.70544 30.6915 3.28237 31.1086C2.8593 31.5258 2.62224 32.0946 2.62442 32.6875V38.8751C2.59594 39.6829 3.0125 40.4417 3.71072 40.854C4.40894 41.2663 5.2775 41.2663 5.97572 40.854C6.67394 40.4417 7.0905 39.6829 7.06202 38.8751V32.6875C7.07339 31.555 6.22334 30.5972 5.09322 30.469V30.469ZM14.437 46.9376C14.4266 46.9376 14.4162 46.9376 14.4057 46.9376C14.3536 46.9358 14.3015 46.9358 14.2494 46.9376C13.6485 46.9295 13.07 47.1643 12.6459 47.5883C12.2219 48.0123 11.9886 48.5894 11.9994 49.1876V55.3749C11.9709 56.1827 12.3875 56.9416 13.0857 57.3539C13.7839 57.7662 14.6525 57.7662 15.3507 57.3539C16.0489 56.9416 16.4655 56.1827 16.437 55.3749V49.1876C16.4634 48.0325 15.5918 47.0519 14.437 46.9376H14.437ZM5.062 46.9376C5.05157 46.9376 5.04114 46.9376 5.03071 46.9376C4.97863 46.9358 4.9265 46.9358 4.87442 46.9376C4.27351 46.9295 3.69496 47.1643 3.27094 47.5883C2.84692 48.0123 2.61365 48.5894 2.62442 49.1876V55.3749C2.59594 56.1827 3.01251 56.9416 3.71073 57.3539C4.40895 57.7661 5.27749 57.7661 5.97571 57.3539C6.67393 56.9416 7.0905 56.1827 7.06202 55.3749V49.1876C7.0884 48.0325 6.21681 47.0519 5.062 46.9376H5.062ZM14.4682 63.4377C14.3953 63.4342 14.3223 63.4342 14.2494 63.4377C13.6485 63.4296 13.07 63.6644 12.6459 64.0884C12.2219 64.5124 11.9886 65.0895 11.9994 65.6877V71.875C11.9709 72.6828 12.3875 73.4417 13.0857 73.854C13.7839 74.2663 14.6525 74.2663 15.3507 73.854C16.0489 73.4417 16.4655 72.6828 16.437 71.875V65.6877C16.4649 64.5433 15.6106 63.567 14.4682 63.4377V63.4377ZM5.09322 63.4377C5.02033 63.4342 4.94731 63.4342 4.87442 63.4377C4.27351 63.4296 3.69496 63.6644 3.27094 64.0884C2.84692 64.5124 2.61365 65.0895 2.62442 65.6877V71.875C2.59594 72.6828 3.0125 73.4417 3.71072 73.854C4.40894 74.2663 5.2775 74.2663 5.97572 73.854C6.67394 73.4417 7.0905 72.6828 7.06202 71.875V65.6877C7.08988 64.5433 6.23561 63.567 5.09322 63.4377V63.4377Z" fill="#FDD760"/>
</svg>
