<svg width="96" height="88" viewBox="0 0 96 88" fill="none" xmlns="http://www.w3.org/2000/svg">
<path d="M21.7992 58.1L9.69922 70.2V70.2V86.9C9.69922 87.4 10.0992 87.8 10.5992 87.8H22.4992C22.9992 87.8 23.3992 87.4 23.3992 86.9V58.7C23.2992 58 22.3992 57.6 21.7992 58.1Z" fill="#E5A03E"/>
<path d="M33.6008 47.6C33.3008 47.3 32.7008 47.3 32.4008 47.6L31.1008 48.9C30.9008 49.1 30.8008 49.3 30.8008 49.5V86.9C30.8008 87.4 31.2008 87.8 31.7008 87.8H43.6008C44.1008 87.8 44.5008 87.4 44.5008 86.9V58.7C44.5008 58.5 44.4008 58.3 44.2008 58.1L33.6008 47.6Z" fill="#E5A03E"/>
<path d="M64.1004 51.9L52.2004 63.8C52.0004 64 51.9004 64.2 51.9004 64.4V86.9C51.9004 87.4 52.3004 87.8 52.8004 87.8H64.7004C65.2004 87.8 65.6004 87.4 65.6004 86.9V52.5C65.5004 51.8 64.6004 51.4 64.1004 51.9Z" fill="#E5A03E"/>
<path d="M85.2 30.8L73.3 42.7C73.1 42.9 73 43.1 73 43.3V86.9C73 87.4 73.4 87.8 73.9 87.8H85.8C86.3 87.8 86.7 87.4 86.7 86.9V31.4C86.7 30.7 85.7 30.3 85.2 30.8Z" fill="#E5A03E"/>
<path d="M94.5996 0.200012H70.1996C69.3996 0.200012 69.0996 1.10001 69.5996 1.70001L76.9996 9.10001L51.5996 34.5C51.2996 34.8 50.6996 34.8 50.3996 34.5L33.5996 17.7C33.2996 17.4 32.6996 17.4 32.3996 17.7L0.699609 49.4C0.399609 49.7 0.399609 50.3 0.699609 50.6L9.09961 59C9.39961 59.3 9.99961 59.3 10.2996 59L32.3996 36.9C32.6996 36.6 33.2996 36.6 33.5996 36.9L50.3996 53.7C50.6996 54 51.2996 54 51.5996 53.7L86.5996 18.7L93.9996 26.1C94.4996 26.6 95.4996 26.3 95.4996 25.5V1.10001C95.4996 0.600012 95.0996 0.200012 94.5996 0.200012Z" fill="#FDD760"/>
</svg>
