<svg width="88" height="107" viewBox="0 0 88 107" fill="none" xmlns="http://www.w3.org/2000/svg">
<path fill-rule="evenodd" clip-rule="evenodd" d="M58 93.8483L68.3459 107L73.2604 93.9643L87 92.1617L76.664 79L58 93.8483Z" fill="#FDD760"/>
<path fill-rule="evenodd" clip-rule="evenodd" d="M25 85.3416L38.0391 90.2639L39.8417 104L53 93.665L38.155 75L25 85.3416Z" fill="#FDD760"/>
<path fill-rule="evenodd" clip-rule="evenodd" d="M63.0408 81.1251L57.9625 78.4467L52.8909 81.1251L53.8592 75.4775L49.7559 71.465L55.4284 70.6424L57.9625 65.4964L60.5 70.6424L66.1725 71.465L62.0725 75.4775L63.0408 81.1251ZM57.9617 63.6339C52.0955 63.6339 47.3145 68.4155 47.3145 74.2904C47.3145 80.1788 52.0989 84.957 57.9617 84.957C63.8346 84.957 68.6157 80.1754 68.6157 74.2904C68.6224 68.4155 63.8379 63.6339 57.9617 63.6339V63.6339Z" fill="#FDD760"/>
<path fill-rule="evenodd" clip-rule="evenodd" d="M57.9642 85.6833C51.6973 85.6833 46.5957 80.5774 46.5957 74.3012C46.5957 68.0183 51.6973 62.9124 57.9642 62.9124C64.2377 62.9124 69.3293 68.0183 69.3293 74.3012C69.3326 80.5774 64.2377 85.6833 57.9642 85.6833V85.6833ZM70.9015 74.2309C70.9015 67.0619 65.1121 61.2672 57.9572 61.2672C50.8156 61.2672 45.0195 67.0619 45.0195 74.2309C45.0195 81.3866 50.8189 87.1813 57.9572 87.1813C65.1055 87.1813 70.9015 81.3866 70.9015 74.2309V74.2309Z" fill="#FDD760"/>
<mask id="mask0" mask-type="alpha" maskUnits="userSpaceOnUse" x="0" y="0" width="79" height="96">
<path fill-rule="evenodd" clip-rule="evenodd" d="M0 0.96637H78.7629V95.0294H0V0.96637Z" fill="white"/>
</mask>
<g mask="url(#mask0)">
<path fill-rule="evenodd" clip-rule="evenodd" d="M61.6248 0.96637L60.9403 1.03324L60.8769 0.96637H-0.00195312V95.0294H35.5324L34.5608 90.8062H4.21823V5.18953H58.0456V21.9919H74.5424V72.9239L78.7626 76.3178V26.2752V18.8722V18.1298L61.6248 0.96637Z" fill="#E5A03E"/>
</g>
<mask id="mask1" mask-type="alpha" maskUnits="userSpaceOnUse" x="0" y="0" width="88" height="108">
<path fill-rule="evenodd" clip-rule="evenodd" d="M0 107H87.3785V0.96637H0V107Z" fill="white"/>
</mask>
<g mask="url(#mask1)">
<path fill-rule="evenodd" clip-rule="evenodd" d="M7.92383 47.9995H12.8218V32.0833H7.92383V47.9995Z" fill="#E5A03E"/>
<path fill-rule="evenodd" clip-rule="evenodd" d="M32.2246 32.0839H37.1226V43.9208H44.154V48.0002H32.2246V32.0839Z" fill="#E5A03E"/>
<path fill-rule="evenodd" clip-rule="evenodd" d="M47.0931 36.159H42.6426V32.0796H56.4383V36.159H51.9911V47.9958H47.0931V36.159Z" fill="#E5A03E"/>
<path fill-rule="evenodd" clip-rule="evenodd" d="M62.1368 42.6489C62.1368 43.0334 62.2036 43.3845 62.3204 43.6954C62.4974 44.1703 62.8146 44.4812 63.2787 44.6284C63.7394 44.7788 64.1968 44.849 64.6576 44.849C64.8512 44.849 65.0649 44.8323 65.2986 44.7922C65.539 44.7554 65.7627 44.6819 65.9664 44.5715C66.17 44.4612 66.3436 44.314 66.4772 44.1268C66.6107 43.9395 66.6808 43.6988 66.6808 43.4012C66.6808 43.1905 66.6241 43.02 66.5206 42.8762C66.4204 42.7358 66.2401 42.602 65.9897 42.475C65.736 42.3513 65.3854 42.2175 64.9447 42.0771C64.4973 41.9333 63.9364 41.7661 63.2519 41.5755C62.6243 41.3949 61.9932 41.2077 61.3489 41.0071C60.7045 40.8064 60.1235 40.5389 59.6127 40.2046C59.1019 39.8702 58.6812 39.4455 58.354 38.9339C58.0268 38.4224 57.8665 37.7636 57.8665 36.9611C57.8665 36.0416 58.0502 35.2491 58.4141 34.5871C58.778 33.9284 59.2555 33.38 59.8498 32.9486C60.4441 32.5173 61.1285 32.203 61.8964 32.0024C62.6643 31.8017 63.4623 31.7014 64.2803 31.7014C65.1383 31.7014 65.963 31.7884 66.7476 31.9689C67.5289 32.1461 68.2267 32.4404 68.8377 32.8517C69.4453 33.2596 69.9361 33.7946 70.3067 34.4533C70.6773 35.1154 70.8743 35.9279 70.9077 36.8909H66.2769C66.3169 36.5967 66.2835 36.3425 66.1734 36.1319C66.0665 35.9246 65.9063 35.754 65.6959 35.6203C65.4889 35.4732 65.2619 35.3695 65.0048 35.3093C64.751 35.2491 64.504 35.2224 64.2469 35.2224C64.0833 35.2224 63.8997 35.2358 63.6893 35.2659C63.479 35.2959 63.2887 35.3461 63.1117 35.423C62.9348 35.4999 62.7845 35.6069 62.6677 35.7474C62.5508 35.8878 62.4874 36.0717 62.4874 36.2924C62.5041 36.5766 62.6476 36.8073 62.9214 36.9946C63.1952 37.1818 63.5491 37.3423 63.9798 37.4828C64.4072 37.6265 64.8946 37.7603 65.4388 37.884C65.9797 38.0111 66.5339 38.1482 67.1015 38.2986C67.6624 38.4625 68.21 38.6531 68.7442 38.8771C69.2784 39.0978 69.7558 39.3854 70.1799 39.7364C70.6039 40.0875 70.9444 40.5155 71.1948 41.0305C71.4452 41.5454 71.5688 42.164 71.5688 42.8929C71.5688 43.9329 71.3584 44.8022 70.9277 45.4977C70.497 46.1966 69.9328 46.7583 69.235 47.183C68.5372 47.6076 67.7559 47.9119 66.8778 48.0925C65.9997 48.2764 65.125 48.37 64.2269 48.37C63.933 48.37 63.5524 48.3466 63.0917 48.3031C62.6343 48.2563 62.1468 48.1594 61.626 48.0122C61.1118 47.8618 60.5876 47.6645 60.0701 47.4104C59.5526 47.1562 59.0818 46.8152 58.6678 46.3838C58.2505 45.9525 57.9066 45.4309 57.6395 44.8223C57.3724 44.2104 57.2422 43.4848 57.2422 42.6388H62.1335V42.6489H62.1368Z" fill="#E5A03E"/>
<path fill-rule="evenodd" clip-rule="evenodd" d="M28.9689 44.1395V48.2523H15.5371V32.0719H28.6684V36.1881H20.8925V38.0806H27.7236V42.0129H20.8925V44.1395H28.9689Z" fill="#E5A03E"/>
<path fill-rule="evenodd" clip-rule="evenodd" d="M10.0371 62.1336H39.3146V58.1512H10.0371V62.1336Z" fill="#FDD760"/>
<path fill-rule="evenodd" clip-rule="evenodd" d="M10.0371 69.871H39.3146V65.8886H10.0371V69.871Z" fill="#FDD760"/>
</g>
</svg>
