<svg width="77" height="78" viewBox="0 0 77 78" fill="none" xmlns="http://www.w3.org/2000/svg">
<path fill-rule="evenodd" clip-rule="evenodd" d="M11.4062 58.1454H65.5918V65.2299V65.2428L65.5938 69.4909H11.4062V58.1454ZM21.3887 78H0.589844L5.28516 73.3299C5.38672 73.2292 5.4707 73.115 5.53711 72.9915C5.59766 72.8773 5.64258 72.7552 5.66992 72.6286C5.69141 72.5303 5.70312 72.4294 5.70312 72.3272C5.70312 71.9511 5.55273 71.5904 5.28516 71.3245L0.589844 66.6545H8.55469V69.4909C8.55664 71.0567 9.83203 72.3257 11.4062 72.3273H21.3887V78ZM65.5938 72.3273H55.6113V78H76.4102L71.7148 73.33C71.4473 73.0641 71.2969 72.7034 71.2969 72.3273C71.2969 71.9512 71.4473 71.5905 71.7148 71.3246L76.4102 66.6545H68.4453V69.4909C68.4434 71.0567 67.168 72.3257 65.5938 72.3273Z" fill="#E5A03E"/>
<path d="M13.2718 39.4986C12.9301 39.8255 12.7738 40.2998 12.8547 40.7644L13.7083 45.6429L9.21197 43.3252C8.80079 43.1128 8.31142 43.1128 7.90024 43.3252L3.40378 45.6429L4.25738 40.7644C4.33831 40.2998 4.18205 39.8255 3.84033 39.4986L0.244141 36.0625L5.23279 35.3514C5.69556 35.2857 6.09651 34.9985 6.30572 34.5827L8.55605 30.1128L10.8063 34.5827C11.0155 34.9985 11.4165 35.2857 11.8793 35.3514L16.8679 36.0625L13.2718 39.4986Z" fill="#FDD760"/>
<path d="M65.1214 35.3514C65.5842 35.2857 65.9852 34.9985 66.1944 34.5827L68.4447 30.1128L70.695 34.5827C70.9042 34.9985 71.3051 35.2857 71.7679 35.3514L76.7565 36.0625L73.1603 39.4986C72.8186 39.8255 72.6624 40.2998 72.7433 40.7644L73.5969 45.6429L69.1006 43.3252C68.6894 43.1128 68.2 43.1128 67.7889 43.3252L63.2925 45.6429L64.1461 40.7644C64.227 40.2998 64.0707 39.8255 63.729 39.4986L60.1328 36.0625L65.1214 35.3514Z" fill="#FDD760"/>
<path d="M32.5243 10.2396C32.9809 10.1779 33.3794 9.90028 33.5937 9.49447L38.5002 0.211212L43.4067 9.49447C43.621 9.90028 44.0195 10.1779 44.4761 10.2396L55.2563 11.7028L47.5188 18.7446C47.157 19.0743 46.9908 19.5656 47.0788 20.0457L48.9251 30.0976L39.131 25.2904C38.7335 25.0947 38.2669 25.0947 37.8694 25.2904L28.0753 30.0976L29.9217 20.0457C30.0097 19.5656 29.8435 19.0742 29.4817 18.7445L21.7441 11.7028L32.5243 10.2396Z" fill="#FDD760"/>
</svg>
