<svg width="68" height="91" viewBox="0 0 68 91" fill="none" xmlns="http://www.w3.org/2000/svg">
<path fill-rule="evenodd" clip-rule="evenodd" d="M57.4727 12.805L52.0312 15.162L50.2285 15.942V22.071C50.7363 23.872 51.0215 25.84 51.0254 27.972C51.0273 28.672 51.0059 29.358 50.9648 30.039C52.0371 30.44 52.5039 32.863 52.0098 35.642C51.5527 38.204 50.4336 40.207 49.3594 40.522C47.9746 44.272 45.7793 47.926 43.0684 50.63C41.4551 52.242 39.6543 53.515 37.7324 54.281C36.457 54.788 35.123 55.068 33.7559 55.068C32.3848 55.068 31.0508 54.784 29.7734 54.281C27.9199 53.543 26.1738 52.327 24.6055 50.789C21.8281 48.081 19.5801 44.37 18.1621 40.553C17.041 40.395 15.8379 38.324 15.3594 35.644C14.8398 32.726 15.3828 30.193 16.5977 29.948C16.5977 28.575 16.7793 27.249 17.0918 25.973C17.1738 25.003 17.3105 23.941 17.4922 22.896V15.941L15.6914 15.161L12.0137 13.569L12.1367 14.564C12.748 14.669 13.2148 15.199 13.2148 15.839C13.2148 16.415 12.8359 16.903 12.3184 17.069L13.2832 30.618C13.3242 31.182 13.2109 32.086 13.0312 32.622L12.2461 34.978C12.0664 35.516 11.7754 35.516 11.5957 34.978L10.8105 32.622C10.6309 32.086 10.5195 31.182 10.5586 30.618L11.5254 17.069C11.0039 16.904 10.6289 16.415 10.6289 15.839C10.6289 15.199 11.0938 14.669 11.7051 14.564L11.8398 13.494L10.2441 12.804C8.82227 12.188 8.82227 11.181 10.2441 10.564L31.2715 1.46301C32.6953 0.845001 35.0234 0.845001 36.4473 1.46301L57.4727 10.565C58.8984 11.182 58.8984 12.189 57.4727 12.805ZM49.1602 36.017C49.2441 35.554 49.2871 35.107 49.2949 34.692C49.2949 34.609 49.291 34.529 49.291 34.447V34.3637L49.2871 34.24L49.2715 34.052C49.2109 33.262 49.0039 32.642 48.6836 32.35C48.627 32.297 48.5645 32.255 48.5 32.225C48.4531 32.206 48.3965 32.185 48.3418 32.177C48.2949 32.169 48.2383 32.187 48.1875 32.19H48.1621L48.1445 32.1915C48.1133 32.1938 48.082 32.1962 48.0488 32.202C48.0391 32.204 48.0273 32.203 48.0137 32.208C47.9062 32.244 47.793 32.308 47.6836 32.393L47.6582 32.406V32.37C47.2402 30.785 46.7695 29.507 46.2656 28.481C45.8203 27.572 45.3477 26.87 44.8691 26.317C44.8066 26.246 44.748 26.168 44.6855 26.103C44.5742 26.0448 44.4629 25.9887 44.3477 25.9387C44.2422 25.8926 44.1309 25.8517 44.0137 25.819H43.4785L42.0625 26.432L36.4453 28.863C35.0215 29.48 32.6953 29.48 31.2695 28.863L24.3945 25.885C23.2012 26.29 22.3066 27.015 21.6523 27.848C20.2305 29.656 19.8926 31.935 19.8496 32.36L19.8457 32.411C19.6191 32.23 19.3887 32.144 19.168 32.182C19.0723 32.197 18.9805 32.241 18.8945 32.3C18.6953 32.442 18.541 32.707 18.4258 33.05C18.3652 33.939 18.3223 34.84 18.3164 35.761C18.3281 35.849 18.3379 35.932 18.3535 36.019C18.502 36.849 18.75 37.59 19.0508 38.165C19.1738 38.4006 19.3066 38.6085 19.4434 38.7823C19.5059 38.8623 19.5703 38.9351 19.6348 39C19.7676 39.1306 19.9043 39.2296 20.0391 39.291C20.1797 39.3547 20.3184 39.3779 20.4551 39.354C20.5801 39.333 20.7012 39.268 20.8066 39.17C22.1094 43.229 24.6113 47.269 27.7637 49.683C29.5781 51.071 31.6133 51.922 33.7578 51.922C35.4082 51.922 36.9922 51.413 38.4609 50.549C38.9434 50.266 39.4121 49.941 39.873 49.586C42.9668 47.161 45.4219 43.174 46.709 39.17C46.8125 39.269 46.9336 39.334 47.0566 39.354C47.168 39.374 47.2812 39.358 47.3965 39.32C47.5176 39.279 47.6484 39.206 47.7676 39.102C48.3027 38.646 48.8047 37.618 49.0781 36.364C49.1094 36.246 49.1387 36.141 49.1602 36.017ZM47.6582 32.406C47.6582 32.407 47.6582 32.407 47.6582 32.407Z" fill="#E5A03E"/>
<path d="M1.44041 74.782C4.33741 80.267 20.1434 82.224 33.9644 82.224C36.4394 82.224 38.8964 82.163 41.3354 82.037L42.6384 78.459C41.0634 76.505 40.1184 74.022 40.1184 71.323C40.1184 65.039 45.2304 59.926 51.5154 59.926C57.7994 59.926 62.9124 65.039 62.9124 71.323C62.9124 74.022 61.9674 76.505 60.3924 78.459L60.5614 78.923C63.5124 77.853 65.6644 76.487 66.5674 74.781C66.8484 74.254 67.0164 73.676 67.1364 73.083C67.3384 72.053 67.3234 70.968 67.0244 69.928C65.8484 65.865 64.3704 63.074 62.8444 61.108C59.8804 57.28 56.7634 56.664 55.4354 56.409C55.2724 56.38 55.1354 56.353 55.0274 56.328C53.5454 55.982 51.8454 55.881 50.3464 55.795C49.1394 55.723 47.9874 55.661 47.0504 55.473C45.9604 58.358 40.6034 60.454 34.0054 60.454C27.4024 60.454 22.0514 58.357 20.9614 55.473C20.0194 55.661 18.8674 55.727 17.6614 55.797C16.1624 55.881 14.4624 55.983 12.9844 56.328C12.8724 56.352 12.7344 56.379 12.5734 56.409C11.3204 56.652 8.47041 57.199 5.65941 60.478C3.96641 62.456 2.28641 65.423 0.978406 69.921C0.652406 71.042 0.650406 72.225 0.915406 73.326C1.03941 73.828 1.19941 74.324 1.44041 74.782Z" fill="#FDD760"/>
<path d="M41.6691 88.039C41.5471 88.377 41.6561 88.588 41.9141 88.588C41.9871 88.588 42.0731 88.571 42.1681 88.535L45.3061 87.367C45.4091 87.329 45.5181 87.311 45.6261 87.311C45.9771 87.311 46.3321 87.498 46.5071 87.802L48.1591 90.715C48.2671 90.905 48.3961 91 48.5161 91C48.6521 91 48.7781 90.885 48.8601 90.656L50.2581 86.817L50.8871 85.088L51.5171 83.359L52.1471 85.088L52.7761 86.817L54.1731 90.656C54.2561 90.885 54.3821 91 54.5171 91C54.6381 91 54.7661 90.905 54.8741 90.716L56.5261 87.803C56.7001 87.498 57.0551 87.312 57.4061 87.312C57.5141 87.312 57.6241 87.33 57.7261 87.368L60.8641 88.536C60.9601 88.572 61.0451 88.589 61.1181 88.589C61.3771 88.589 61.4861 88.378 61.3631 88.04L58.5431 80.29C57.3331 81.24 55.9301 81.952 54.4011 82.352C53.9591 82.469 53.5051 82.556 53.0461 82.619C52.6201 82.677 52.1881 82.709 51.7501 82.719C51.6731 82.72 51.5951 82.723 51.5171 82.723C51.4381 82.723 51.3611 82.72 51.2831 82.719C50.8451 82.709 50.4131 82.677 49.9881 82.619C49.5271 82.556 49.0751 82.47 48.6331 82.352C47.1041 81.953 45.7001 81.241 44.4911 80.29L41.6691 88.039Z" fill="#E5A03E"/>
<path fill-rule="evenodd" clip-rule="evenodd" d="M45.3516 77.922C45.0273 77.619 44.7246 77.291 44.4492 76.944C44.1465 76.563 43.873 76.155 43.6309 75.728C42.9023 74.425 42.4844 72.924 42.4844 71.324C42.4844 66.337 46.5273 62.294 51.5156 62.294C56.502 62.294 60.5469 66.337 60.5469 71.324C60.5469 72.923 60.1289 74.424 59.4004 75.728C59.1602 76.155 58.8867 76.563 58.582 76.944C58.3066 77.291 58.0039 77.619 57.6816 77.922C57.0215 78.536 56.2734 79.055 55.457 79.452C54.9902 79.678 54.5 79.864 53.9941 80.009C53.5527 80.134 53.0996 80.226 52.6348 80.284C52.2676 80.329 51.8945 80.355 51.5156 80.355C51.1367 80.355 50.7637 80.329 50.3965 80.284C49.9336 80.227 49.4785 80.134 49.0391 80.009C48.5312 79.864 48.043 79.678 47.5762 79.452C46.7578 79.055 46.0098 78.536 45.3516 77.922ZM51.791 65.904C49.1328 65.904 46.9062 67.7295 46.2812 70.1939C46.1641 70.6458 46.0977 71.1145 46.0996 71.6C46.0996 71.9153 46.1309 72.2232 46.1797 72.5238C46.2324 72.8391 46.3086 73.1428 46.4082 73.4371C46.5195 73.766 46.6582 74.0823 46.8262 74.3808C46.9004 74.5141 46.9805 74.6423 47.0645 74.767C47.125 74.8546 47.1875 74.9404 47.252 75.025C47.4531 75.2918 47.6758 75.5404 47.9199 75.7678C48.2441 76.0709 48.6055 76.3364 48.9941 76.5573C49.8203 77.025 50.7734 77.294 51.793 77.294C52.8105 77.294 53.7637 77.025 54.5898 76.5573C55.2715 76.1705 55.8633 75.6472 56.332 75.025C56.4863 74.8201 56.6309 74.6078 56.7559 74.3808C56.8672 74.1838 56.9648 73.9791 57.0508 73.768C57.0957 73.6593 57.1367 73.5489 57.1758 73.4371C57.2324 73.2713 57.2812 73.1024 57.3223 72.9304C57.3535 72.7972 57.3809 72.662 57.4023 72.5249C57.4512 72.2232 57.4844 71.9153 57.4844 71.6C57.4844 71.1145 57.416 70.6458 57.3008 70.1939C56.6758 67.7295 54.4492 65.904 51.791 65.904Z" fill="#E5A03E"/>
<path d="M48.6822 71.361L49.4272 72.088L49.6232 72.279L49.6502 72.306L49.4272 73.608L49.2092 74.874L51.5172 73.661L53.8232 74.874L53.6052 73.608L53.3822 72.306L53.4112 72.279L53.6052 72.088L54.3512 71.361L55.1842 70.548L55.2492 70.486L52.6692 70.111L52.5852 69.94L51.5172 67.774L50.4472 69.94L50.3632 70.111L47.7852 70.486L47.8492 70.548L48.6822 71.361Z" fill="#E5A03E"/>
</svg>
