<svg width="89" height="80" viewBox="0 0 89 80" fill="none" xmlns="http://www.w3.org/2000/svg">
<rect x="69" y="37" width="9" height="5" fill="#FDD760"/>
<rect x="45" y="60" width="5" height="9" fill="#FDD760"/>
<rect x="60.5508" y="22.9142" width="9" height="5" transform="rotate(-45 60.5508 22.9142)" fill="#FDD760"/>
<rect x="64.0859" y="52.5503" width="9" height="5" transform="rotate(45 64.0859 52.5503)" fill="#FDD760"/>
<path d="M33 51.7925L44.5892 40.2762V17H52V43.1881C51.4847 43.7 38.2443 57 38.2443 57L33 51.7925Z" fill="#FDD760"/>
<path d="M49.5271 0V7.03314C67.463 7.03314 82.0568 21.8218 82.0568 40C82.0568 58.1773 67.463 72.9659 49.5271 72.9659C33.0677 72.9659 19.4318 60.5073 17.298 44.4089L22.2488 49.3575L27.1572 44.3837L13.5962 30.6415L0 44.3846L4.90834 49.3585L10.2549 43.9405C12.2149 64.1518 29.0793 80 49.529 80C71.2915 80 89 62.056 89 40.0009C88.9982 17.945 71.2915 0 49.5271 0Z" fill="#E5A03E"/>
</svg>
