<svg width="33" height="31" viewBox="0 0 33 31" fill="none" xmlns="http://www.w3.org/2000/svg">
<path fill-rule="evenodd" clip-rule="evenodd" d="M16.5 0C7.38721 0 0 6.9397 0 15.5C0 24.0603 7.38721 31 16.5 31C25.6128 31 33 24.0603 33 15.5C33 6.9397 25.6128 0 16.5 0ZM12.8723 7.28345C13.8105 7.24316 14.1106 7.2334 16.498 7.2334C18.8887 7.2334 19.1875 7.24316 20.1262 7.28345C21.063 7.32373 21.7029 7.46289 22.2639 7.66748C22.8433 7.87842 23.3328 8.16089 23.8223 8.62061C24.3118 9.08008 24.6125 9.54126 24.8379 10.0852C25.0542 10.6106 25.2029 11.2114 25.2468 12.0916C25.2891 12.9734 25.3 13.2551 25.3 15.5002C25.3 17.7454 25.2891 18.0264 25.2468 18.9082C25.2029 19.7878 25.0542 20.3887 24.8379 20.9146C24.6125 21.458 24.3118 21.9192 23.8223 22.3787C23.3333 22.8386 22.843 23.1218 22.2644 23.333C21.7046 23.5374 21.0645 23.6768 20.1274 23.717C19.1887 23.7571 18.8899 23.7668 16.4998 23.7668C14.1099 23.7668 13.8101 23.7571 12.8716 23.717C11.9348 23.6768 11.2952 23.5374 10.7354 23.333C10.1567 23.1218 9.66577 22.8386 9.177 22.3787C8.6875 21.9192 8.38696 21.458 8.16187 20.9143C7.94458 20.3887 7.79614 19.7881 7.75317 18.908C7.71069 18.0261 7.69995 17.7454 7.69995 15.5002C7.69995 13.2551 7.71094 12.9731 7.75293 12.0913C7.79517 11.2117 7.9436 10.6106 8.16187 10.085C8.38721 9.54126 8.68799 9.08008 9.17749 8.62061C9.6665 8.16089 10.1575 7.87866 10.7363 7.66748C11.2959 7.46289 11.9353 7.32373 12.8723 7.28345Z" fill="#677897"/>
<path fill-rule="evenodd" clip-rule="evenodd" d="M6.4248 0.00195312H7.21436C9.56396 0.00195312 9.84229 0.0100098 10.7703 0.0495605C11.6282 0.0864258 12.094 0.221191 12.4041 0.334229C12.8147 0.484131 13.1077 0.66333 13.4153 0.952637C13.7234 1.24194 13.9141 1.51758 14.074 1.90332C14.1943 2.19434 14.3379 2.63184 14.377 3.43774C14.4192 4.30933 14.4282 4.57104 14.4282 6.7771C14.4282 8.9834 14.4192 9.24512 14.377 10.1167C14.3376 10.9226 14.1943 11.3601 14.074 11.6511C13.9143 12.0369 13.7234 12.3115 13.4153 12.6008C13.252 12.7544 13.0928 12.877 12.918 12.9805C12.7637 13.072 12.5969 13.1487 12.4041 13.219C12.2295 13.2832 12.0051 13.3538 11.689 13.4097C11.4443 13.4531 11.1445 13.4878 10.7703 13.5039C9.84253 13.5435 9.56396 13.5522 7.21436 13.5522C4.8645 13.5522 4.58594 13.5435 3.6582 13.5039C2.80029 13.4668 2.33447 13.332 2.02417 13.219C1.61353 13.0691 1.32031 12.8899 1.01221 12.6006C0.704102 12.3113 0.513428 12.0364 0.35376 11.6504C0.307861 11.5396 0.258545 11.4072 0.212891 11.2415C0.138916 10.9722 0.074707 10.6145 0.0505371 10.116C0.026123 9.60791 0.0129395 9.30713 0.00634766 8.70752C0.00146484 8.27832 0 7.69604 0 6.77515C0 5.77051 0.00170898 5.16895 0.00756836 4.72974C0.0146484 4.20386 0.0275879 3.91064 0.0505371 3.43579C0.0749512 2.93335 0.139893 2.57422 0.2146 2.30444C0.259766 2.14111 0.30835 2.01074 0.35376 1.90088C0.513184 1.51514 0.704102 1.2395 1.01221 0.950195C1.32031 0.660889 1.61353 0.481689 2.02417 0.331543C2.26514 0.243164 2.6001 0.142334 3.13989 0.0844727C3.29492 0.0678711 3.4668 0.0546875 3.6582 0.0463867C4.46997 0.0119629 4.78467 0.00170898 6.4248 0V0.00195312ZM11.9116 1.37451C11.3286 1.37451 10.8557 1.81836 10.8557 2.36621C10.8557 2.5957 10.9387 2.80713 11.0781 2.97534C11.2715 3.2085 11.573 3.3584 11.9116 3.3584C12.4946 3.3584 12.9678 2.91406 12.9678 2.36621C12.9678 1.8186 12.4946 1.37427 11.9116 1.37451ZM2.69507 6.77905C2.69507 4.43457 4.71851 2.53369 7.21436 2.53369C9.70996 2.53369 11.7327 4.43457 11.7327 6.77905C11.7327 9.12354 9.70996 11.0234 7.21436 11.0234C4.71851 11.0234 2.69507 9.12354 2.69507 6.77905Z" transform="translate(9.28662 8.72095)" fill="#677897"/>
<path fill-rule="evenodd" clip-rule="evenodd" d="M2.93336 0C4.55331 0 5.86673 1.23364 5.86673 2.75558C5.86673 4.27736 4.55331 5.51117 2.93336 5.51117C1.31323 5.51117 0 4.27736 0 2.75558C0 1.23364 1.31323 0 2.93336 0V0Z" transform="translate(13.5674 12.7444)" fill="#677897"/>
</svg>
