<svg width="33" height="31" viewBox="0 0 33 31" fill="none" xmlns="http://www.w3.org/2000/svg">
<path fill-rule="evenodd" clip-rule="evenodd" d="M16.5 31C25.6127 31 33 24.0604 33 15.5C33 6.93959 25.6127 0 16.5 0C7.3873 0 0 6.93959 0 15.5C0 24.0604 7.3873 31 16.5 31ZM23.8013 7.17299C24.0177 7.08883 24.2611 7.0137 24.5196 7.00167C24.7781 6.98965 25.0576 7.04074 25.3401 7.20905C25.6196 7.37435 25.851 7.68392 25.9412 8.01452C26.0313 8.34512 26.0103 8.68474 25.9292 9.0484L23.0559 23.7662L23.0289 23.8354C23.0289 23.8354 22.8666 24.2651 22.4488 24.6018C22.0341 24.9354 21.2496 25.1247 20.4742 24.7851L20.3901 24.749L16.6723 21.8968L14.4542 23.9165L14.4272 23.9375C14.4272 23.9375 13.9493 24.3072 13.3542 24.1269L13.3487 24.126C13.3131 24.1206 13.2927 24.1174 13.2641 24.1089C13.2602 24.1076 13.2563 24.1051 13.2521 24.1026C13.2467 24.0992 13.2408 24.0955 13.234 24.0938L13.2416 24.0956C13.236 24.0936 13.2305 24.0911 13.225 24.0878C13.1769 24.0698 13.1288 24.0487 13.0837 24.0217C12.9695 23.9496 12.8734 23.8594 12.7922 23.7512C12.6239 23.5408 12.4887 23.2643 12.3504 22.8225C12.2026 22.3565 11.7599 20.9088 11.4106 19.7667C11.2058 19.097 11.0331 18.5323 10.9709 18.3323L7.21404 17.067H7.20803C7.20803 17.067 6.95857 16.9799 6.6971 16.7935C6.43862 16.6102 6.07797 16.2766 6.00884 15.7206C5.96676 15.393 6.08097 15.0744 6.22223 14.867C6.36349 14.6596 6.52578 14.5274 6.67305 14.4312C6.90195 14.2738 7.12328 14.1846 7.20499 14.1544C7.47474 14.0407 11.3411 12.4107 15.2717 10.7555C16.2353 10.3497 17.2021 9.94248 18.1211 9.55547C19.1485 9.1228 20.116 8.71534 20.9521 8.36316C21.2735 8.22836 21.5727 8.10285 21.8472 7.98768C22.9253 7.53533 23.6234 7.24246 23.7983 7.17299H23.8013ZM24.4408 8.61139C24.4407 8.60283 24.4406 8.59345 24.4414 8.57955C24.4223 8.57955 24.4167 8.57955 24.4118 8.58138C24.4051 8.58387 24.3997 8.58974 24.3633 8.60359C24.2972 8.63064 23.128 9.11753 21.5472 9.78174C20.2225 10.3408 18.5643 11.0392 16.861 11.7566C16.5316 11.8954 16.2005 12.0348 15.8698 12.1741C11.7944 13.8902 7.78508 15.5793 7.78508 15.5793L7.76104 15.5883L7.73699 15.6003C7.73699 15.6003 7.71595 15.6094 7.71295 15.6094C7.71595 15.6094 7.72196 15.6124 7.72497 15.6124V15.6154L12.2152 17.1271L12.2182 17.1422L21.5862 11.3386C21.5862 11.3386 22.0701 11.0921 22.0491 11.4408C22.0491 11.4408 22.1513 11.5009 21.8447 11.7864C21.5382 12.0719 14.4152 18.711 14.4152 18.711L13.8381 22.3957L16.5851 19.8922L21.1324 23.3785C21.3819 23.4777 21.43 23.4477 21.4901 23.3996C21.5412 23.3592 21.5634 23.3188 21.5761 23.2957C21.5776 23.293 21.579 23.2906 21.5802 23.2884L24.4264 8.72381V8.7148C24.4414 8.64856 24.4411 8.63245 24.4408 8.61139Z" fill="#677897"/>
</svg>
