<svg width="137" height="270" viewBox="0 0 137 270" fill="none" xmlns="http://www.w3.org/2000/svg">
<g opacity="0.3">
<path fill-rule="evenodd" clip-rule="evenodd" d="M106.384 114.333C106.699 114.493 107.021 114.669 107.353 114.864C110.588 116.752 114.304 120.133 117.652 125.671C124.34 136.801 129.952 156.296 129.982 192.974C129.982 193.87 129.979 194.765 129.976 195.66C129.958 199.671 126.694 202.908 122.679 202.908H122.642C118.608 202.889 115.359 199.611 115.378 195.589C115.382 194.694 115.387 193.823 115.387 192.974C115.407 163.6 111.48 146.822 107.491 137.754V176.423H56.5508V137.737C52.9844 145.884 49.4424 160.21 48.7686 184.285L56.5508 185.801V181.219H107.491V257.726C107.491 264.119 102.295 269.303 95.8887 269.303C89.4824 269.303 84.2861 264.119 84.2861 257.726V205.713H79.7578V257.726C79.7578 264.119 74.5615 269.303 68.1553 269.303C61.7461 269.303 56.5508 264.119 56.5508 257.726V226.658L17.7695 244.012L0 204.483L34.084 189.233C34.3701 163.835 37.4648 147.091 41.6426 135.724C45.9941 123.847 51.7988 117.716 56.6895 114.864C57.4268 114.431 58.1191 114.092 58.7793 113.806C62.9131 122.475 71.7783 128.482 82.0234 128.482C92.2686 128.482 101.131 122.474 105.266 113.807C105.628 113.964 106 114.137 106.384 114.333ZM48.3447 193.981C47.7568 196.344 45.1582 198.002 44.248 198.536C43.0225 198.886 42.1104 199.077 41.9141 199.1C41.6631 199.126 41.4004 199.128 41.3672 199.128C37.3662 199.128 34.1025 195.915 34.0654 191.915L34.0645 191.697L2.96875 205.612L18.8994 241.048L69.4492 218.429L55.7354 187.923L48.666 186.545L48.6631 187.069C48.6572 187.771 48.6523 188.473 48.6523 189.194C48.6523 190.052 48.6553 190.911 48.6641 191.774C48.6729 192.706 48.4717 193.486 48.373 193.871L48.3447 193.981Z" fill="black"/>
<path d="M82.0211 126.239C94.9899 126.239 105.503 115.75 105.503 102.812C105.503 89.8732 94.9899 79.3845 82.0211 79.3845C69.0523 79.3845 58.5391 89.8732 58.5391 102.812C58.5391 115.75 69.0523 126.239 82.0211 126.239Z" fill="black"/>
<path fill-rule="evenodd" clip-rule="evenodd" d="M99.7314 0.050415C93.5498 -0.362976 87.7754 1.78021 83.4746 5.7305C82.1357 5.59943 80.7969 5.49524 79.4688 5.45154C73.2432 5.24988 65.9414 5.75851 60.6924 9.5217C56.1494 12.7785 53.5928 19.1006 56.874 24.1544C58.04 25.9503 59.75 27.2689 61.7363 28.2492C61.8604 32.2062 66.8682 37.2051 69.415 38.5069C69.7012 38.6537 69.9941 38.7837 70.2842 38.9192C70.9053 40.7173 72.0547 42.1447 73.6123 43.2605C73.5498 43.415 73.4941 43.5729 73.4492 43.7362C73.3945 43.9375 73.3564 44.147 73.3428 44.3685C73.2861 45.3018 73.5693 46.1487 74.0938 46.9173C71.6719 48.1956 70.3145 49.8548 72.4941 51.8064C77.5039 56.2944 88.0596 56.7661 94.3623 56.9868C96.2412 57.0529 101.68 56.9084 105.829 55.6536C107.415 61.97 101.13 63.6281 94.6611 62.8898C93.5381 59.2824 86.3838 58.1519 82.5449 58.3312C82.166 58.3491 79.5967 58.9306 80.3584 59.7271C83.0059 62.5022 87.0801 64.0729 91.3193 64.6745L91.3164 64.7814C91.3115 64.9503 91.3066 65.1179 91.2803 65.303C90.7373 68.9732 86.8838 71.3842 84.1445 69.0237C84.4971 68.9878 84.8545 68.9614 85.1826 68.9371L85.6221 68.9037C85.8057 68.8887 85.9717 68.8733 86.1123 68.8556C87.5713 68.6685 88.9023 67.0384 86.6299 67.3308C85.8145 67.4355 85.2119 67.4635 84.6943 67.4875C83.583 67.5391 82.8633 67.5725 81.2725 68.3078L81.2334 68.3255C80.8369 68.5064 79.958 68.9072 80.3584 69.4359C83.7764 73.9654 90.0586 71.5803 93.0732 67.8339C93.9326 66.7673 94.4336 65.8117 94.6631 64.9512C97.4072 65.0185 100.084 64.7059 102.351 64.0561C107.256 62.649 109.454 58.4869 108.674 54.4604C110.264 53.5182 111.218 52.2422 110.924 50.5135C110.823 49.9242 110.558 49.3428 110.172 48.7737C115.073 47.3329 119.604 45.3208 123.158 43.0443C124.712 42.0483 126.117 40.8058 127.207 39.3965C129.827 38.8027 132.229 37.9053 134.146 36.5396C141.213 31.5093 132.124 20.2209 128.29 15.7552C121.21 7.50958 110.781 0.789825 99.7314 0.050415ZM90.5234 62.1022C88.5527 61.5712 86.7363 60.8475 85.3174 60.0027C87.3799 60.2134 89.4287 60.7769 90.5234 62.1022ZM114.235 38.9394C117.712 38.8128 121.101 38.4397 124.123 37.9893C124.379 37.9513 124.671 37.9143 124.978 37.8773C125.726 36.6617 126.234 35.3823 126.349 34.1152C124.82 35.0249 123.2 35.7879 121.594 36.4377C119.199 37.4079 116.736 38.2291 114.235 38.9394ZM73.374 37.7395C72.4385 35.8798 72.4482 33.6503 73.9795 31.0567C74.6758 31.1183 75.3535 31.171 75.9902 31.2169C76.5049 31.2538 77.0215 31.2762 77.5381 31.2986L77.9219 31.3155C77.0811 32.0841 76.3516 32.9434 75.791 33.9136C74.9775 35.3174 74.6484 36.8119 74.6787 38.2952C74.2363 38.126 73.8027 37.9401 73.374 37.7395ZM126.188 32.1972C125.833 30.8595 124.925 29.5846 123.254 28.4777C122.976 28.2932 122.69 28.1163 122.399 27.9459C122.026 27.7272 121.645 27.519 121.258 27.3182C120.535 27.121 119.802 26.9552 119.067 26.7939C119.126 32.502 113.553 35.2916 106.881 36.3301C107.744 37.0998 108.554 37.9087 109.263 38.7411C109.94 38.5898 110.613 38.4319 111.283 38.2661C116.056 37.0807 121.311 35.6725 125.359 32.7507C125.541 32.6196 125.85 32.4258 126.188 32.1972ZM80.7666 39.8502C80.1494 39.7449 79.5342 39.634 78.9229 39.5096C78.6787 39.4601 78.4326 39.4018 78.1875 39.3435L78.0088 39.3012C77.7549 38.0106 77.7959 36.6024 78.2363 35.0753C78.6572 33.6212 79.4854 32.4112 80.5811 31.3917C80.8838 31.3962 81.1846 31.4018 81.4873 31.4018C82.9502 32.8347 84.709 34.029 86.7549 34.8692C87.6172 35.2232 88.7266 35.5459 89.9951 35.826C93.7334 38.3131 98.7734 39.3976 103.204 39.8659C99.7393 40.379 96.2207 40.677 92.71 40.7263C88.4785 39.8928 84.2158 39.5365 80.7666 39.8502ZM97.4102 30.0327C99.1641 30.8484 102.368 32.6834 105.32 35.0205C111.185 34.1656 116.707 31.6964 115.784 26.19C113.705 25.8819 111.6 25.6915 109.49 25.6052L109.603 25.6702C110.057 25.9603 109.263 26.5295 109.059 26.6269C106.527 27.8235 103.833 28.6413 101.097 29.2328C99.834 29.5062 98.5605 29.7482 97.2812 29.9745L97.4102 30.0327ZM95.3262 35.0697C94.8965 35.0003 94.4619 34.9174 94.0254 34.83C92.4502 33.8407 91.0039 32.6633 89.7705 31.2136L89.6729 31.092L89.6123 31.013C90.6758 30.9133 91.7354 30.7946 92.7939 30.659C95.7021 31.9384 98.4648 33.4778 100.969 35.3834C98.7939 35.4383 96.7949 35.3073 95.3262 35.0697ZM104.435 38.4487C103.857 37.8605 103.263 37.2959 102.646 36.7592C101.08 36.841 99.5098 36.8466 97.9795 36.7883C100.018 37.5647 102.188 38.1036 104.435 38.4487ZM89.626 29.3729L89.6914 29.3981L89.8467 29.4591L89.3838 29.4986C89.1299 29.5209 88.876 29.5433 88.623 29.56C88.5039 29.337 88.4043 29.1197 88.3242 28.9124L88.8252 29.0887C89.0928 29.1822 89.3594 29.2756 89.626 29.3729ZM85.1338 29.7325C85.0205 29.3897 84.9395 29.0603 84.8877 28.7444C84.5332 28.8939 84.1865 29.0514 83.8486 29.2176C83.6953 29.2929 83.5439 29.3701 83.3945 29.449C83.4912 29.56 83.5811 29.672 83.6816 29.7807L84.5176 29.7605C84.7002 29.7555 84.8848 29.7432 85.0693 29.7351L85.1338 29.7325ZM85.793 31.2987C85.8535 31.4147 85.9219 31.5253 85.9902 31.6357L86.0928 31.804C85.8613 31.6516 85.6416 31.4869 85.4189 31.3211L85.6338 31.3086L85.793 31.2987ZM104.906 25.8094C104.609 25.7473 104.281 25.6783 103.961 25.5917C102.37 25.6466 100.788 25.7329 99.2383 25.8707C96.8516 26.0824 93.5127 26.395 90.1865 27.1187C91.7773 27.6722 93.3496 28.2738 94.8936 28.9225C96.374 28.7186 97.8496 28.4856 99.3135 28.1898C101.252 27.7988 103.235 27.3798 105.1 26.7076C106.605 26.166 105.956 26.0297 104.906 25.8094ZM82 27.5133C81.8467 27.2573 81.7031 26.9973 81.5723 26.7322C82.5088 26.9989 83.4404 27.279 84.3691 27.5747L83.8398 27.7819C83.6016 27.8777 83.3652 27.9768 83.1299 28.0793C82.9307 28.1656 82.7334 28.2544 82.5381 28.3455L82.4111 28.1585L82.2744 27.9525C82.1807 27.8073 82.0889 27.661 82 27.5133ZM103.719 23.341C104.501 23.5382 105.242 23.7578 105.944 23.9953C107.562 23.9695 109.178 23.993 110.79 24.0659C108.41 23.6771 106.013 23.453 103.719 23.341ZM99.1045 24.4064C96.3037 24.6988 93.5205 25.1335 90.7773 25.7273C90.0557 25.883 89.2979 26.0623 88.5195 26.2639C89.4023 24.9621 91.4932 24.2048 93.8027 23.7779C95.6436 23.8888 97.4336 24.1051 99.1045 24.4064ZM82.5254 24.8266C83.5273 25.082 84.5234 25.3554 85.5195 25.6433C86.0039 24.942 86.7236 24.3605 87.6182 23.8765C85.8545 24.049 84.1357 24.3515 82.5254 24.8266ZM71.9434 29.1779C69.5498 28.7847 67.2354 28.1573 65.1865 27.1916C65.166 26.1284 65.5381 25.2366 66.5859 24.7806C69.2471 23.6245 73.5117 24.6809 76.6055 25.4539C74.7246 26.4477 73.1211 27.6767 71.9434 29.1779ZM78.1943 26.7322C77.043 27.4504 76.0137 28.2985 75.1846 29.3292L75.1221 29.4102L75.0039 29.57C76.6611 29.7224 78.3086 29.7941 79.8789 29.8131L79.999 29.7358C79.2822 28.8015 78.6846 27.7921 78.1943 26.7322ZM79.1631 42.1548C79.8691 42.0203 80.6631 41.9396 81.4707 41.8937C84.0742 42.1906 86.7148 42.2881 89.3213 42.2701C92.1094 42.6779 95.4414 43.4532 98.541 44.624L98.2217 44.6427L97.7852 44.665C97.375 44.6843 96.9648 44.6997 96.5547 44.7151L96.1777 44.7293C91.9814 43.7546 87.4834 43.6134 83.709 44.0459C82.2939 43.7221 80.8662 43.2728 79.5254 42.706C79.3955 42.5267 79.2803 42.3407 79.1631 42.1548ZM100.503 48.8633C98.9375 47.9144 97.1611 47.1817 95.3076 46.6495C91.5156 46.9027 87.708 46.933 84.2266 46.5812C86.2051 47.6107 88.4092 48.2807 90.4756 48.5563C93.6875 48.9843 97.0879 49.0896 100.503 48.8633ZM104.625 48.4241C103.431 47.529 102.096 46.7739 100.65 46.1599L101.014 46.1186L101.729 46.0356C103.034 46.71 104.224 47.4729 105.232 48.3289L104.625 48.4241ZM80.624 47.7284C80.0645 47.4113 79.5293 47.0394 79.0225 46.6293L78.6533 46.738C80.8213 48.5496 83.5127 49.7831 86.2168 50.5382C89.585 51.4792 97.2148 51.8523 102.621 50.462C94.7197 51.6753 86.6475 51.151 80.624 47.7284ZM108.278 46.8232C107.666 46.3381 106.964 45.8675 106.19 45.4138L107.012 45.2847L107.682 45.1764L108.54 45.034C108.598 45.6894 108.505 46.2854 108.278 46.8232ZM97.5693 41.8993C99.791 42.5424 101.896 43.3042 103.758 44.1601C104.294 44.1006 104.83 44.0373 105.365 43.9704C105.761 43.9209 106.156 43.8694 106.551 43.816C107.101 43.7417 107.649 43.6636 108.197 43.582C107.865 42.7194 107.302 41.7716 106.474 40.7308C103.519 41.2663 100.543 41.6551 97.5693 41.8993ZM113.112 22.7439C110.673 22.2845 101.342 21.1944 94.0479 22.1097C89.4424 22.0011 84.6455 22.5175 80.5352 23.8261C79.5107 19.5688 80.3613 14.8354 82.2188 10.8941C82.8145 9.6326 83.4863 8.5358 84.21 7.56C88.6055 8.26019 92.9326 9.45673 96.9531 10.8504C103.342 13.0653 111.399 16.666 114.672 23.0307L114.245 22.9528L113.112 22.7439ZM69.9912 7.4502C63.5117 8.60638 54.8623 15.1771 59.7422 22.6912C60.5029 23.8619 61.4814 24.8265 62.5928 25.6511C62.6777 25.5503 62.7627 25.4483 62.8594 25.352C66.3887 21.8532 72.667 22.7114 77.1309 23.602C76.332 20.1122 76.668 16.293 78.377 12.6665C79.3271 10.6532 80.5439 8.83493 81.9707 7.24292C77.9385 6.76791 73.8848 6.75671 69.9912 7.4502ZM68.5332 34.3057C67.8398 33.5562 66.541 31.6617 65.7783 29.7325C67.4785 30.1918 69.2412 30.5089 70.9473 30.7341C70.2402 32.0628 69.8066 33.5562 69.75 35.2423C69.7471 35.3185 69.7588 35.3857 69.7568 35.4608C69.5498 35.2871 69.3467 35.1087 69.1494 34.9238L68.9561 34.7385L68.8164 34.6009C68.7207 34.5044 68.626 34.4061 68.5332 34.3057ZM77.5566 45.2222C77.3691 45.1583 77.1709 45.1034 76.9883 45.0351C77.1006 45.1998 77.2432 45.3734 77.4062 45.5538L77.7607 45.4373L77.6826 45.3559L77.5566 45.2222ZM95.6924 55.3914C91.5967 55.3489 87.4287 54.6173 83.4521 53.6885C80.6426 53.0331 77.3184 52.2097 75.1221 50.2413C74.3008 49.5063 74.5156 48.8286 75.2949 48.2269C78.916 51.3246 86.5498 52.79 89.3838 53.1127C93.3398 53.562 99.3018 53.6449 104.173 52.1089C104.261 52.2284 104.346 52.3499 104.428 52.4734C104.523 52.6174 104.615 52.7641 104.703 52.9135C104.933 53.3022 105.136 53.709 105.312 54.1333C102.159 55.2447 96.9766 55.4038 95.6924 55.3914ZM107.284 50.7963C107.229 50.8291 107.176 50.8624 107.118 50.8933C107.371 51.2429 107.595 51.6003 107.788 51.9644C107.805 51.635 107.708 51.2765 107.476 50.8821C107.459 50.8543 107.438 50.8277 107.419 50.8011L107.376 50.7421L107.284 50.7963ZM118.59 43.8969C116.332 45.146 113.876 46.1454 111.318 46.924C111.753 46.1106 111.943 45.276 111.928 44.4312C114.101 44.0234 115.937 43.6425 117.242 43.368C119.212 42.9547 118.812 41.6215 116.883 42.027C115.175 42.3855 113.449 42.7093 111.717 43.0129C111.474 42.1054 111.033 41.198 110.442 40.3051C114.398 40.4698 119.005 40.5594 123.345 40.0496C121.905 41.664 120.157 43.0286 118.59 43.8969ZM128.484 37.3463C130.889 36.8365 133.189 35.8674 133.415 33.6312C133.681 30.9821 132.529 28.5508 131.423 26.2173L131.344 26.0477C128.983 21.0522 125.402 16.591 121.278 12.9174C112.481 5.0762 95.0918 -3.85843 85.5654 5.95456C91.6943 6.76007 97.8086 8.45514 103.375 10.9075C108.74 13.2715 115.912 16.7893 118.184 22.6531C118.342 23.062 118.46 23.4496 118.574 23.8373C120.562 24.3134 122.602 24.9408 124.348 25.8382C126.978 26.5698 129.432 27.6688 131.312 29.4053C131.497 29.5768 131.424 29.793 131.285 29.9655C130.687 30.7229 130.006 31.4119 129.274 32.0426C129.623 33.9012 129.285 35.6982 128.484 37.3463Z" fill="black"/>
</g>
</svg>
