<svg width="90" height="31" viewBox="0 0 90 31" fill="none" xmlns="http://www.w3.org/2000/svg">
<path d="M9.84958 4.70787H0.144847V4.67517C0.0724234 4.38093 0.0362117 4.11938 0.0362117 3.82514C0.0362117 3.59629 0 3.33474 0 3.0405C0 2.25585 0.325905 1.5366 0.905292 0.948112C1.52089 0.326935 2.53482 0 3.94708 0H25.8552C25.9638 0.588483 26 1.20966 26 1.79814C26 2.15777 25.9276 2.5174 25.8189 2.87703C25.7103 3.23666 25.4568 3.56359 25.1671 3.79245C24.805 4.08669 24.4067 4.31555 23.9721 4.44632C23.3928 4.64248 22.7772 4.70787 22.1616 4.70787H16.2953V28.1818H9.84958V4.70787Z" transform="translate(9 0.272728)" fill="url(#paint0_linear)"/>
<path fill-rule="evenodd" clip-rule="evenodd" d="M14.1945 17.0788C13.5136 17.2469 12.8327 17.3141 12.1518 17.3141C10.1449 17.3141 8.67558 16.7763 7.85136 15.7007C6.88371 14.5579 6.34611 13.1797 6.27445 11.7344H19.8567C19.8925 11.5663 19.9284 11.3647 19.9284 11.163L19.9642 10.4235C20 10.1546 20 9.91932 20 9.68403V9.14624C20 7.96979 19.8567 6.79336 19.4983 5.68414C19.1758 4.60853 18.6382 3.63377 17.8857 2.75984C17.0614 1.88592 16.058 1.18005 14.9471 0.743086C13.5852 0.20529 12.0801 -0.0300009 10.5749 0.0036142C9.24894 -0.0300009 7.95878 0.171675 6.70451 0.575025C5.41435 0.978376 4.26762 1.65062 3.29997 2.49094C2.26078 3.39848 1.43644 4.5077 0.898966 5.75136C0.253824 7.23031 -0.0327967 8.84373 0.0029699 10.4571C0.0029699 12.6756 0.325602 14.5243 1.00651 16.0032C1.57987 17.3477 2.51164 18.5578 3.65837 19.4989C4.73344 20.3728 6.0236 20.9779 7.38542 21.314C8.78312 21.6501 10.2166 21.8182 11.6501 21.8182C13.0476 21.8182 14.4454 21.6501 15.8072 21.314C16.7747 21.0787 17.7065 20.6754 18.5307 20.1375C19.2832 19.5998 19.6775 19.0283 19.6775 18.3897C19.6059 17.7847 19.4267 17.2133 19.0683 16.7091C18.7458 16.104 18.3515 15.5662 17.9215 15.0284C17.6348 15.2301 17.3123 15.499 16.9898 15.7679L16.9888 15.7686C16.5949 16.0373 16.201 16.3059 15.7713 16.5074C15.2696 16.7427 14.732 16.9444 14.1945 17.0788ZM13.3702 5.17995C13.9794 6.18833 14.266 7.36477 14.2303 8.5412H6.09525C6.09525 7.06225 6.48942 5.91942 7.24198 5.11272C7.99467 4.27241 9.1414 3.83545 10.2881 3.86905C11.7575 3.86905 12.7968 4.30602 13.3702 5.17995Z" transform="translate(31 8.45454)" fill="url(#paint1_linear)"/>
<path d="M17.6585 2.94234C17.621 3.48347 17.471 4.02459 17.2086 4.49807C16.9088 5.07301 16.5714 5.64795 16.234 6.18907C15.8592 5.91851 15.4469 5.68177 15.072 5.47885C14.5847 5.20829 14.0599 4.97155 13.4977 4.76863C12.8979 4.53189 12.2981 4.36279 11.6984 4.22751C11.0611 4.09223 10.4239 4.02459 9.78666 4.02459C9.41181 4.02459 9.03697 4.05841 8.66212 4.09223C8.28727 4.12605 7.94991 4.22751 7.61255 4.36279C7.31267 4.49807 7.05028 4.70099 6.82537 4.93773C6.60046 5.20829 6.488 5.58031 6.52549 5.91851C6.52549 6.89929 7.68752 7.64333 10.0491 8.08299C11.0237 8.25209 11.9608 8.48883 12.8979 8.75939C13.7975 9.02995 14.6597 9.40197 15.4469 9.90928C17.1337 10.9915 18.0708 12.7502 17.9958 14.6103C18.0333 15.6925 17.7709 16.7409 17.2461 17.6879C16.7588 18.5672 16.0466 19.3451 15.1845 19.9538C14.2848 20.5964 13.2353 21.0699 12.1107 21.3405C10.8737 21.6787 9.56175 21.8478 8.28727 21.8139C7.08776 21.8139 5.88825 21.7463 4.68874 21.5434C3.86407 21.4081 3.03941 21.1714 2.25223 20.867C1.72744 20.6641 1.24014 20.3935 0.790323 20.1229C0.265536 19.8186 -0.0343415 19.3113 0.00314328 18.7363C0.00314328 18.1952 0.190567 17.6541 0.490445 17.1806C0.827808 16.6395 1.20266 16.0645 1.61499 15.4896C1.95235 15.7601 2.3272 15.9969 2.70204 16.1998C3.18935 16.4704 3.67665 16.7071 4.20144 16.91C4.80119 17.1468 5.40095 17.3159 6.0007 17.4511C6.63794 17.5864 7.31267 17.6541 7.98739 17.6541C8.43721 17.6541 8.84954 17.6202 9.29936 17.5526C9.71169 17.5188 10.124 17.3835 10.4614 17.2144C10.7987 17.0453 11.0986 16.8086 11.2861 16.538C11.511 16.1998 11.6609 15.794 11.6234 15.4219C11.6984 14.6779 11.2486 13.9677 10.5364 13.6295C9.52427 13.1898 8.39973 12.8516 7.27518 12.6825C6.37555 12.5134 5.43843 12.2767 4.57628 11.9723C3.75162 11.7017 2.96444 11.2959 2.25223 10.8224C1.5775 10.3489 1.01523 9.70636 0.640384 9.02995C0.228052 8.18445 0.00314328 7.30513 0.040628 6.39199C0.00314328 5.44503 0.265537 4.49807 0.827808 3.65257C1.35259 2.8747 2.0648 2.16448 2.88947 1.65718C3.7891 1.08224 4.80119 0.676401 5.85076 0.405841C7.01279 0.13528 8.17482 0 9.37433 0C10.5364 0 11.6984 0.0676401 12.8229 0.27056C13.7226 0.405841 14.5847 0.642581 15.4469 0.980782C16.8713 1.45426 17.621 2.13066 17.6585 2.94234Z" transform="translate(54 8.45454)" fill="url(#paint2_linear)"/>
<path d="M0.542636 23.6796C0.325581 23.115 0.180879 22.484 0.108527 21.8862C0.0361757 21.2552 0 20.6242 0 19.9932V0.199267L0.687339 0.0996337C0.904393 0.0664225 1.12145 0.0664225 1.37468 0.0332112C1.62791 0 1.88114 0 2.13437 0C2.64083 0 3.14729 0.0332112 3.61757 0.132845C4.08786 0.199267 4.55814 0.398535 4.95607 0.631014C5.35401 0.896704 5.71576 1.26203 5.93282 1.66056C6.18605 2.19194 6.33075 2.78974 6.29457 3.38755V6.37656H12.8062V10.7272H6.29457V19.8271C6.29457 21.8198 7.16279 22.8161 8.9354 22.8161C9.36951 22.8161 9.76744 22.7497 10.1654 22.6169C10.5271 22.484 10.8889 22.3512 11.2506 22.1519C11.5401 22.0191 11.7933 21.853 12.0465 21.6537C12.2997 21.4877 12.4444 21.3548 12.553 21.2552C12.9509 21.7866 13.3127 22.318 13.6382 22.8825C13.8553 23.2811 14 23.7128 14 24.1778C14 24.5763 13.8191 24.9749 13.4935 25.2738C13.0956 25.6723 12.6253 26.0044 12.1189 26.2701C11.4315 26.6022 10.708 26.8347 9.9845 27.0007C9.0801 27.2 8.17571 27.2996 7.23514 27.2664C5.31783 27.2664 3.79845 26.9343 2.74935 26.2369C1.77261 25.7387 0.976744 24.7756 0.542636 23.6796Z" transform="translate(76 2.09091)" fill="url(#paint3_linear)"/>
<path fill-rule="evenodd" clip-rule="evenodd" d="M5.10852 4.92116C5.69141 4.39623 6 3.74008 6 2.88708C6 2.03408 5.72571 1.34512 5.10852 0.82019C4.52576 0.262459 3.80566 0 2.98291 0C2.16003 0 1.43994 0.295273 0.857178 0.82019C0.274292 1.34512 0 2.03408 0 2.88708C0 3.70727 0.274292 4.39623 0.857178 4.92116C1.40576 5.44608 2.12573 5.70854 2.98291 5.70854C3.80566 5.70854 4.52576 5.44608 5.10852 4.92116ZM5.21143 28.149C5.62292 28.1162 5.86292 28.0834 5.9657 28.0178H5.93152V12.1388C5.93152 11.4827 5.79431 10.925 5.58862 10.5313C5.38293 10.1048 5.07434 9.8095 4.73145 9.57985C4.35437 9.3502 3.97717 9.18616 3.53149 9.12054C3.12 9.02212 2.67432 8.98931 2.22864 8.98931C1.78284 8.98931 1.37146 9.02212 0.960083 9.05492C0.548584 9.08774 0.342896 9.12054 0.342896 9.15335V24.901C0.342896 25.5572 0.445801 26.0821 0.617188 26.5086C0.822876 26.9351 1.06287 27.2632 1.37146 27.5257C1.68005 27.7881 2.05713 27.9522 2.50293 28.0506C2.94861 28.149 3.42859 28.1818 3.97717 28.1818C4.42285 28.1818 4.83435 28.1818 5.21143 28.149Z" transform="translate(0 0.272728)" fill="#0BA837"/>
<defs>
<linearGradient id="paint0_linear" x2="1" gradientUnits="userSpaceOnUse" gradientTransform="translate(-0.00771309 14.0991) scale(74.6886 80.9562)">
<stop stop-color="#6B6B6B"/>
<stop offset="1"/>
</linearGradient>
<linearGradient id="paint1_linear" x2="1" gradientUnits="userSpaceOnUse" gradientTransform="translate(-0.00593315 10.9154) scale(57.4528 62.6757)">
<stop stop-color="#6B6B6B"/>
<stop offset="1"/>
</linearGradient>
<linearGradient id="paint2_linear" x2="1" gradientUnits="userSpaceOnUse" gradientTransform="translate(-0.00533983 10.9154) scale(51.7075 62.6757)">
<stop stop-color="#6B6B6B"/>
<stop offset="1"/>
</linearGradient>
<linearGradient id="paint3_linear" x2="1" gradientUnits="userSpaceOnUse" gradientTransform="translate(-0.0041532 13.6443) scale(40.2169 78.3447)">
<stop stop-color="#6B6B6B"/>
<stop offset="1"/>
</linearGradient>
</defs>
</svg>
