<?xml version="1.0" encoding="utf-8"?>
<!-- Generator: Adobe Illustrator 21.0.2, SVG Export Plug-In . SVG Version: 6.00 Build 0)  -->
<svg version="1.1" id="Layer_1" xmlns="http://www.w3.org/2000/svg" xmlns:xlink="http://www.w3.org/1999/xlink" x="0px" y="0px"
	 viewBox="0 0 123.2 31" style="enable-background:new 0 0 123.2 31;" xml:space="preserve">
<style type="text/css">
	.st0{fill:url(#SVGID_1_);}
	.st1{fill:url(#SVGID_2_);}
	.st2{fill:url(#SVGID_3_);}
	.st3{fill:url(#SVGID_4_);}
	.st4{fill:#0BA837;}
	.st5{fill:#0BA837;stroke:#FFFFFF;stroke-miterlimit:10;}
	.st6{fill:#FFFFFF;}
	.st7{font-family:'OpenSans-Bold';}
	.st8{font-size:9px;}
</style>
<linearGradient id="SVGID_1_" gradientUnits="userSpaceOnUse" x1="-459.7607" y1="521.8734" x2="-458.7607" y2="521.8734" gradientTransform="matrix(74.6886 0 0 -80.9562 34347.8789 42263.2461)">
	<stop  offset="0" style="stop-color:#6B6B6B"/>
	<stop  offset="1" style="stop-color:#000000"/>
</linearGradient>
<path class="st0" d="M18.8,5H9.1v0C9.1,4.7,9,4.4,9,4.1c0-0.2,0-0.5,0-0.8c0-0.8,0.3-1.5,0.9-2.1c0.6-0.6,1.6-0.9,3-0.9h21.9
	C35,0.9,35,1.5,35,2.1c0,0.4-0.1,0.7-0.2,1.1c-0.1,0.4-0.4,0.7-0.7,0.9c-0.4,0.3-0.8,0.5-1.2,0.7C32.4,4.9,31.8,5,31.2,5h-5.9v23.5
	h-6.4V5z"/>
<linearGradient id="SVGID_2_" gradientUnits="userSpaceOnUse" x1="-457.8889" y1="520.0864" x2="-456.8889" y2="520.0864" gradientTransform="matrix(57.4528 0 0 -62.6757 26338 32616.1406)">
	<stop  offset="0" style="stop-color:#6B6B6B"/>
	<stop  offset="1" style="stop-color:#000000"/>
</linearGradient>
<path class="st1" d="M45.2,25.5c-0.7,0.2-1.4,0.2-2,0.2c-2,0-3.5-0.5-4.3-1.6c-1-1.1-1.5-2.5-1.6-4h13.6c0-0.2,0.1-0.4,0.1-0.6
	l0-0.7c0-0.3,0-0.5,0-0.7v-0.5c0-1.2-0.1-2.4-0.5-3.5c-0.3-1.1-0.9-2.1-1.6-2.9c-0.8-0.9-1.8-1.6-2.9-2c-1.4-0.5-2.9-0.8-4.4-0.7
	c-1.3,0-2.6,0.2-3.9,0.6c-1.3,0.4-2.4,1.1-3.4,1.9c-1,0.9-1.9,2-2.4,3.3c-0.6,1.5-0.9,3.1-0.9,4.7c0,2.2,0.3,4.1,1,5.5
	c0.6,1.3,1.5,2.6,2.7,3.5c1.1,0.9,2.4,1.5,3.7,1.8c1.4,0.3,2.8,0.5,4.3,0.5c1.4,0,2.8-0.2,4.2-0.5c1-0.2,1.9-0.6,2.7-1.2
	c0.8-0.5,1.1-1.1,1.1-1.7c-0.1-0.6-0.3-1.2-0.6-1.7c-0.3-0.6-0.7-1.1-1.1-1.7c-0.3,0.2-0.6,0.5-0.9,0.7l0,0
	c-0.4,0.3-0.8,0.5-1.2,0.7C46.3,25.2,45.7,25.4,45.2,25.5z M44.4,13.6c0.6,1,0.9,2.2,0.9,3.4h-8.1c0-1.5,0.4-2.6,1.1-3.4
	c0.8-0.8,1.9-1.3,3-1.2C42.8,12.3,43.8,12.8,44.4,13.6z"/>
<linearGradient id="SVGID_3_" gradientUnits="userSpaceOnUse" x1="-456.9877" y1="520.0864" x2="-455.9877" y2="520.0864" gradientTransform="matrix(51.7075 0 0 -62.6757 23683.6895 32616.1406)">
	<stop  offset="0" style="stop-color:#6B6B6B"/>
	<stop  offset="1" style="stop-color:#000000"/>
</linearGradient>
<path class="st2" d="M71.7,11.4c0,0.5-0.2,1.1-0.4,1.6c-0.3,0.6-0.6,1.1-1,1.7c-0.4-0.3-0.8-0.5-1.2-0.7c-0.5-0.3-1-0.5-1.6-0.7
	c-0.6-0.2-1.2-0.4-1.8-0.5c-0.6-0.1-1.3-0.2-1.9-0.2c-0.4,0-0.7,0-1.1,0.1c-0.4,0-0.7,0.1-1,0.3c-0.3,0.1-0.6,0.3-0.8,0.6
	c-0.2,0.3-0.3,0.6-0.3,1c0,1,1.2,1.7,3.5,2.2c1,0.2,1.9,0.4,2.8,0.7c0.9,0.3,1.8,0.6,2.5,1.1c1.7,1.1,2.6,2.8,2.5,4.7
	c0,1.1-0.2,2.1-0.7,3.1c-0.5,0.9-1.2,1.7-2.1,2.3c-0.9,0.6-1.9,1.1-3.1,1.4c-1.2,0.3-2.5,0.5-3.8,0.5c-1.2,0-2.4-0.1-3.6-0.3
	c-0.8-0.1-1.6-0.4-2.4-0.7c-0.5-0.2-1-0.5-1.5-0.7c-0.5-0.3-0.8-0.8-0.8-1.4c0-0.5,0.2-1.1,0.5-1.6c0.3-0.5,0.7-1.1,1.1-1.7
	c0.3,0.3,0.7,0.5,1.1,0.7c0.5,0.3,1,0.5,1.5,0.7c0.6,0.2,1.2,0.4,1.8,0.5c0.6,0.1,1.3,0.2,2,0.2c0.4,0,0.9,0,1.3-0.1
	c0.4,0,0.8-0.2,1.2-0.3c0.3-0.2,0.6-0.4,0.8-0.7c0.2-0.3,0.4-0.7,0.3-1.1c0.1-0.7-0.4-1.5-1.1-1.8c-1-0.4-2.1-0.8-3.3-0.9
	c-0.9-0.2-1.8-0.4-2.7-0.7c-0.8-0.3-1.6-0.7-2.3-1.1c-0.7-0.5-1.2-1.1-1.6-1.8c-0.4-0.8-0.6-1.7-0.6-2.6c0-0.9,0.2-1.9,0.8-2.7
	c0.5-0.8,1.2-1.5,2.1-2c0.9-0.6,1.9-1,3-1.3c1.2-0.3,2.3-0.4,3.5-0.4c1.2,0,2.3,0.1,3.4,0.3c0.9,0.1,1.8,0.4,2.6,0.7
	C70.9,9.9,71.6,10.6,71.7,11.4z"/>
<linearGradient id="SVGID_4_" gradientUnits="userSpaceOnUse" x1="-454.4127" y1="521.6691" x2="-453.4127" y2="521.6691" gradientTransform="matrix(40.2169 0 0 -78.3447 18351.0703 40885.7383)">
	<stop  offset="0" style="stop-color:#6B6B6B"/>
	<stop  offset="1" style="stop-color:#000000"/>
</linearGradient>
<path class="st3" d="M76.5,25.8c-0.2-0.6-0.4-1.2-0.4-1.8C76,23.3,76,22.7,76,22.1V2.3l0.7-0.1c0.2,0,0.4,0,0.7-0.1s0.5,0,0.8,0
	c0.5,0,1,0,1.5,0.1c0.5,0.1,0.9,0.3,1.3,0.5c0.4,0.3,0.8,0.6,1,1c0.3,0.5,0.4,1.1,0.4,1.7v3h6.5v4.4h-6.5v9.1c0,2,0.9,3,2.6,3
	c0.4,0,0.8-0.1,1.2-0.2c0.4-0.1,0.7-0.3,1.1-0.5c0.3-0.1,0.5-0.3,0.8-0.5c0.3-0.2,0.4-0.3,0.5-0.4c0.4,0.5,0.8,1.1,1.1,1.6
	c0.2,0.4,0.4,0.8,0.4,1.3c0,0.4-0.2,0.8-0.5,1.1c-0.4,0.4-0.9,0.7-1.4,1c-0.7,0.3-1.4,0.6-2.1,0.7c-0.9,0.2-1.8,0.3-2.7,0.3
	c-1.9,0-3.4-0.3-4.5-1C77.8,27.8,77,26.9,76.5,25.8z"/>
<path class="st4" d="M5.1,5.2C5.7,4.7,6,4,6,3.2S5.7,1.6,5.1,1.1C4.5,0.5,3.8,0.3,3,0.3c-0.8,0-1.5,0.3-2.1,0.8C0.3,1.6,0,2.3,0,3.2
	c0,0.8,0.3,1.5,0.9,2C1.4,5.7,2.1,6,3,6C3.8,6,4.5,5.7,5.1,5.2z M5.2,28.4c0.4,0,0.7-0.1,0.8-0.1h0V12.4c0-0.7-0.1-1.2-0.3-1.6
	c-0.2-0.4-0.5-0.7-0.9-1C4.4,9.6,4,9.5,3.5,9.4C3.1,9.3,2.7,9.3,2.2,9.3c-0.4,0-0.9,0-1.3,0.1c-0.4,0-0.6,0.1-0.6,0.1v15.7
	c0,0.7,0.1,1.2,0.3,1.6c0.2,0.4,0.4,0.8,0.8,1c0.3,0.3,0.7,0.4,1.1,0.5c0.4,0.1,0.9,0.1,1.5,0.1C4.4,28.5,4.8,28.5,5.2,28.4z"/>
<path class="st5" d="M117.7,17.4H98c-2.8,0-5-2.3-5-5V7.1c0-2.8,2.3-5,5-5h19.6c2.8,0,5,2.3,5,5v5.3
	C122.7,15.1,120.4,17.4,117.7,17.4z"/>
<text transform="matrix(1 0 0 1 96.4518 12.9429)" class="st6 st7 st8">BETA</text>
</svg>
