<svg width="129" height="131" viewBox="0 0 129 131" fill="none" xmlns="http://www.w3.org/2000/svg">
<g opacity="0.3">
<path d="M41.984 39.5047C50.5809 39.5047 57.5402 32.5453 57.5402 23.9484C57.7449 15.3516 50.5809 8.1875 41.984 8.1875C33.3871 8.1875 26.4277 15.1469 26.4277 23.7437C26.4277 32.3406 33.5918 39.5047 41.984 39.5047Z" fill="black"/>
<path d="M85.5828 70.6172C84.7641 66.5234 80.6703 63.8625 76.5766 64.6812L61.4297 67.5469C60.611 67.7515 59.5875 67.3422 58.9735 66.5234L46.2828 49.125C44.4407 46.464 41.7797 44.6218 38.9141 43.5984L26.0188 39.0953C21.7203 37.4578 16.8078 39.914 15.375 44.2125L0.842214 85.15C0.432839 86.1734 0.228151 87.1968 0.432839 88.2203C0.432839 89.039 0.432839 89.8578 0.637526 90.6765L8.00628 124.859C8.82503 128.544 12.1 131 15.5797 131C20.4922 131 24.1766 126.497 22.9485 121.584L18.2407 100.092L22.5391 101.525L26.6328 120.766C27.6563 124.859 31.75 127.52 35.8438 126.702C39.9375 125.883 42.5985 121.584 41.7797 117.491L35.8438 90.0625L41.3703 74.5062L53.8563 82.6937C57.336 84.9453 59.5875 83.7172 79.6469 79.8281C83.7407 78.8047 86.4016 74.7109 85.5828 70.6172Z" fill="black"/>
<path d="M78.4183 84.1265L67.7746 121.584C67.5699 122.608 68.1839 123.836 69.2074 124.041C70.2308 124.245 71.4589 123.631 71.6636 122.608L82.9214 82.6937C82.1027 83.1031 81.2839 83.3078 80.2605 83.5125C79.8511 83.9219 79.0324 83.9219 78.4183 84.1265Z" fill="black"/>
<path fill-rule="evenodd" clip-rule="evenodd" d="M89.4717 24.5625C92.3379 26.8141 95.8174 28.0421 99.502 28.0421C104.414 28.0421 108.917 25.7906 111.783 22.3109V52.8093C111.783 54.0375 110.76 54.8562 109.736 54.8562H92.1328L111.169 121.584C111.374 122.608 110.76 123.836 109.736 124.041C108.917 124.245 107.689 123.836 107.28 122.608L91.5186 67.3422V128.953C91.5186 129.977 90.7002 131 89.4717 131C88.2441 131 87.4248 129.977 87.4248 128.953V79.4187C91.3145 73.8922 90.0859 66.3187 84.5596 62.6344L86.8115 54.8562H69.208C68.1846 54.8562 67.1611 54.0375 67.1611 52.8093V22.3109C70.0264 25.7906 74.5303 28.0421 79.4424 28.0421C83.127 28.0421 86.6064 26.8141 89.4717 24.5625ZM85.3779 44.8265L95.2031 38.6859C95.3779 38.5115 95.5146 38.2627 95.6152 38.0029C95.75 37.6531 95.8174 37.2833 95.8174 37.0483C95.8174 36.639 95.6123 36.0249 95.2031 35.8203L85.3779 29.6797C84.7637 29.475 84.1504 29.475 83.7402 29.6797C83.3311 30.089 82.9219 30.4984 82.9219 31.1124V43.3937C82.9219 44.0078 83.3311 44.6218 83.7402 44.8265C84.3545 45.0312 84.9688 45.0312 85.3779 44.8265Z" fill="black"/>
<path d="M127.748 20.2641C127.134 19.8547 126.52 19.8547 125.906 20.0594L116.081 24.1531V50.5578L125.906 54.6516C126.111 54.6516 126.52 54.8563 126.725 54.8563C127.134 54.8563 127.544 54.6516 127.748 54.4469C128.362 54.0375 128.772 53.4234 128.772 52.8094V22.1063C128.772 21.2875 128.362 20.6734 127.748 20.2641Z" fill="black"/>
<path fill-rule="evenodd" clip-rule="evenodd" d="M79.4414 23.9485C83.5352 23.9485 87.2197 21.9016 89.4717 18.6266C91.7227 21.9016 95.2031 23.9485 99.501 23.9485C106.051 23.9485 111.578 18.6266 111.578 11.8718C111.578 5.11719 106.051 0 99.501 0C95.4072 0 91.7227 2.04688 89.4717 5.3219C87.4248 2.04688 83.7402 0 79.4414 0C72.8916 0 67.3652 5.3219 67.3652 12.0765C67.3652 18.8313 72.8916 23.9485 79.4414 23.9485ZM99.501 4.09375C103.8 4.09375 107.484 7.57349 107.484 12.0765C107.484 16.5797 104.005 20.0593 99.501 20.0593C95.2031 20.0593 91.5186 16.5797 91.5186 12.0765C91.5186 7.57349 94.998 4.09375 99.501 4.09375ZM87.4248 12.0765C87.4248 7.57349 83.7402 4.09375 79.4414 4.09375C75.1436 4.09375 71.459 7.57349 71.459 12.0765C71.459 16.5797 75.1436 20.0593 79.4414 20.0593C83.9453 20.0593 87.4248 16.5797 87.4248 12.0765Z" fill="black"/>
</g>
</svg>
