<svg width="92" height="18" viewBox="0 0 92 18" fill="none" xmlns="http://www.w3.org/2000/svg">
<path fill-rule="evenodd" clip-rule="evenodd" d="M26.2019 0.328369L25.7983 1.91479L25.78 2.02441L25.6699 2.06079L23.0828 2.86328L22.8992 2.91797L22.8442 2.7356L22.4771 1.49536L22.4221 1.31299L22.5872 1.2583L25.9451 0.109375L26.2754 0L26.2019 0.328369ZM4.69727 17.7629H3.2478H3.17432H2.99072V17.5806V5.72632L0.660645 6.45581L0.477051 6.5105L0.422119 6.32812L0.0549316 5.08813L0 4.90576L0.183594 4.85107L3.21094 3.81152L3.54126 3.70215L3.57788 3.68384H3.61475H4.7522H4.88062H4.93579V17.5986V17.781H4.69727V17.7629ZM84.7522 18C86.844 18 88.6238 17.1975 89.8899 15.9209C91.2292 14.5896 92 12.7112 92 10.7051C92 8.69897 91.2292 6.82056 89.9082 5.48926C88.6421 4.23096 86.8806 3.42847 84.7891 3.42847C82.6973 3.42847 80.9175 4.23096 79.6514 5.50757C78.312 6.83887 77.5413 8.71729 77.5413 10.7051C77.5413 12.7295 78.312 14.5896 79.6331 15.9209C80.8806 17.1975 82.6421 18 84.7522 18ZM81.0642 14.626C82 15.5925 83.2844 16.1943 84.7891 16.1943C86.2935 16.1943 87.5779 15.6108 88.4954 14.6443C89.4312 13.6594 90 12.2734 90 10.7234C90 9.19141 89.4312 7.80542 88.4771 6.82056C87.5596 5.854 86.2568 5.2522 84.7522 5.2522C83.2478 5.2522 81.9634 5.83569 81.0459 6.80225C80.0918 7.78711 79.5413 9.1731 79.5413 10.7234C79.5413 12.2551 80.1101 13.623 81.0642 14.626ZM5.85327 8.0061L13.5229 17.6902L13.5781 17.7449H13.6697H14.9175H15.1011V17.5625V3.84814V3.66577H14.9175H13.3945H13.2112V3.84814V14.2981L5.85327 4.8877V8.0061ZM24.3301 18C26.165 18 27.6697 17.4346 28.7156 16.3223C29.7063 15.2644 30.2751 13.7324 30.2568 11.7446V3.88452V3.70215H30.0732H28.5137H28.3301V3.88452V11.854C28.3301 13.2766 27.9631 14.3525 27.3027 15.064C26.6055 15.8298 25.5962 16.1946 24.3669 16.1946C23.0825 16.1946 22.0732 15.7932 21.3943 15.0457C20.697 14.2979 20.3301 13.1855 20.3301 11.7629V3.88452V3.70215H20.1467H18.5872H18.4036V3.88452V11.854C18.4036 13.8054 18.9907 15.3191 19.9814 16.3586C21.0273 17.4346 22.532 18 24.3301 18ZM35.2844 17.7629H33.7615H33.5779V17.5806V3.86621V3.68384H33.7615H35.3394H35.4312L35.4861 3.7749L40.3486 11.0151L45.2109 3.7749L45.2659 3.68384H45.3577H46.9358H47.1191V3.86621V17.5806V17.7629H46.9358H45.376H45.1926V17.5806V7.09424L40.5503 13.9148L40.4954 14.0061H40.4036H40.3301H40.22L40.165 13.9148L35.4861 7.09424V17.5623V17.7446H35.2844V17.7629ZM50.8809 17.7629H60.9541V17.7083H61.156V17.5259V16.1216V15.9392H60.9724H52.6423V11.5259H59.9817H60.165V11.3435V9.93921V9.75684H59.9817H52.6423V5.45288H60.8623H61.0459V5.27051V3.86621V3.68384H60.8623H50.8809H50.6973V3.86621V17.5806V17.7629H50.8809ZM65.6514 17.7629H64.0918H63.9082V17.5806V3.86621V3.68384H64.0918H70.0183C70.8806 3.68384 71.6514 3.81152 72.3303 4.04858C73.0276 4.28564 73.6331 4.65039 74.0918 5.10645C74.4587 5.45288 74.7339 5.89062 74.9358 6.38281C75.1191 6.87524 75.2292 7.4043 75.2292 7.96948C75.2292 9.15503 74.8074 10.1033 74.1101 10.8145C73.4861 11.4529 72.6238 11.8723 71.6331 12.1094L75.688 17.4712L75.9265 17.781H75.5413H73.6331H73.5413L73.4861 17.7083L69.5413 12.4558H65.8899V17.5806V17.7629H65.6514ZM65.835 10.6687V5.4895V5.47119H69.8899C70.9543 5.47119 71.7983 5.70825 72.3672 6.146C72.9358 6.58374 73.2295 7.20361 73.2295 7.98779C73.2295 8.80859 72.8992 9.46509 72.3303 9.92114C71.7432 10.4133 70.8809 10.6687 69.8716 10.6687H65.835Z" fill="#2A4560"/>
</svg>
