<svg width="1171" height="367" viewBox="0 0 1171 367" fill="none" xmlns="http://www.w3.org/2000/svg">
<path d="M0 0.935484H333.147H1168.42" transform="translate(1 41.6613)" stroke="#E6E8F1" stroke-linecap="square"/>
<path d="M0 0.972225H83.2869H292.105" transform="translate(1.65869 76.5417)" stroke="#E6E8F1" stroke-linecap="square"/>
<path d="M0 0.972225H90.7767H318.373" transform="translate(294.565 76.5417)" stroke="#E6E8F1" stroke-linecap="square"/>
<path d="M0 0.972225H90.7767H318.373" transform="translate(614.327 76.5417)" stroke="#E6E8F1" stroke-linecap="square"/>
<path d="M0 0.972225H69.206H242.72" transform="translate(926.152 76.5417)" stroke="#E6E8F1" stroke-linecap="square"/>
<path d="M0 0.972225H83.2869H292.105" transform="translate(2.18555 112.542)" stroke="#E6E8F1" stroke-linecap="square"/>
<path d="M0 0.972225H90.7767H318.373" transform="translate(295.092 112.542)" stroke="#E6E8F1" stroke-linecap="square"/>
<path d="M0 0.972225H90.7767H318.373" transform="translate(614.854 112.542)" stroke="#E6E8F1" stroke-linecap="square"/>
<path d="M0 0.972225H69.206H242.72" transform="translate(926.679 112.542)" stroke="#E6E8F1" stroke-linecap="square"/>
<path d="M0 0.972225H83.2869H292.105" transform="translate(1.13184 148.542)" stroke="#E6E8F1" stroke-linecap="square"/>
<path d="M0 0.972225H90.7767H318.373" transform="translate(294.039 148.542)" stroke="#E6E8F1" stroke-linecap="square"/>
<path d="M0 0.972225H90.7767H318.373" transform="translate(613.8 148.542)" stroke="#E6E8F1" stroke-linecap="square"/>
<path d="M0 0.972225H69.206H242.72" transform="translate(925.625 148.542)" stroke="#E6E8F1" stroke-linecap="square"/>
<path d="M0 0.972225H83.2869H292.105" transform="translate(1.65869 184.542)" stroke="#E6E8F1" stroke-linecap="square"/>
<path d="M0 0.972225H90.7767H318.373" transform="translate(294.565 184.542)" stroke="#E6E8F1" stroke-linecap="square"/>
<path d="M0 0.972225H90.7767H318.373" transform="translate(614.327 184.542)" stroke="#E6E8F1" stroke-linecap="square"/>
<path d="M0 0.972225H69.206H242.72" transform="translate(926.152 184.542)" stroke="#E6E8F1" stroke-linecap="square"/>
<path d="M0 0.972225H83.2869H292.105" transform="translate(2.7124 220.542)" stroke="#E6E8F1" stroke-linecap="square"/>
<path d="M0 0.972225H90.7767H318.373" transform="translate(295.619 220.542)" stroke="#E6E8F1" stroke-linecap="square"/>
<path d="M0 0.972225H90.7767H318.373" transform="translate(615.38 220.542)" stroke="#E6E8F1" stroke-linecap="square"/>
<path d="M0 0.972225H69.206H242.72" transform="translate(927.206 220.542)" stroke="#E6E8F1" stroke-linecap="square"/>
<path d="M0 0.972225H83.2869H292.105" transform="translate(3.23877 256.542)" stroke="#E6E8F1" stroke-linecap="square"/>
<path d="M0 0.972225H90.7767H318.373" transform="translate(296.146 256.542)" stroke="#E6E8F1" stroke-linecap="square"/>
<path d="M0 0.972225H90.7767H318.373" transform="translate(615.907 256.542)" stroke="#E6E8F1" stroke-linecap="square"/>
<path d="M0 0.972225H69.206H242.72" transform="translate(927.732 256.542)" stroke="#E6E8F1" stroke-linecap="square"/>
<path d="M0 0.972225H83.2869H292.105" transform="translate(2.18555 292.542)" stroke="#E6E8F1" stroke-linecap="square"/>
<path d="M0 0.972225H90.7767H318.373" transform="translate(295.092 292.542)" stroke="#E6E8F1" stroke-linecap="square"/>
<path d="M0 0.972225H90.7767H318.373" transform="translate(614.854 292.542)" stroke="#E6E8F1" stroke-linecap="square"/>
<path d="M0 0.972225H69.206H242.72" transform="translate(926.679 292.542)" stroke="#E6E8F1" stroke-linecap="square"/>
<path d="M0 0.972225H83.2869H292.105" transform="translate(1.65869 328.542)" stroke="#E6E8F1" stroke-linecap="square"/>
<path d="M0 0.972225H90.7767H318.373" transform="translate(295.619 328.542)" stroke="#E6E8F1" stroke-linecap="square"/>
<path d="M0 0.972225H90.7767H318.373" transform="translate(615.38 328.542)" stroke="#E6E8F1" stroke-linecap="square"/>
<path d="M0 0.972225H69.206H242.72" transform="translate(927.206 328.542)" stroke="#E6E8F1" stroke-linecap="square"/>
<path d="M0 0.972225H83.2869H292.105" transform="translate(3.23877 364.542)" stroke="#E6E8F1" stroke-linecap="square"/>
<path d="M0 0.972225H90.7767H318.373" transform="translate(296.146 364.542)" stroke="#E6E8F1" stroke-linecap="square"/>
<path d="M0 0.972225H90.7767H318.373" transform="translate(615.907 364.542)" stroke="#E6E8F1" stroke-linecap="square"/>
<path d="M0 0.972225H69.206H242.72" transform="translate(927.732 364.542)" stroke="#E6E8F1" stroke-linecap="square"/>
</svg>
