<svg width="58" height="33" viewBox="0 0 58 33" fill="none" xmlns="http://www.w3.org/2000/svg">
<rect width="58" height="33" rx="8" fill="#06A978"/>
<path fill-rule="evenodd" clip-rule="evenodd" d="M3.35999 7C4.30017 7 5.15015 6.59778 5.76001 5.94946C5.16614 5.31818 4.80005 4.45361 4.80005 3.5C4.80005 2.54639 5.16614 1.68182 5.76001 1.05054C5.15015 0.402222 4.30017 0 3.35999 0C1.50427 0 0 1.56702 0 3.5C0 5.43298 1.50427 7 3.35999 7ZM12 3.5C12 5.43298 10.4957 7 8.64001 7C6.7843 7 5.28003 5.43298 5.28003 3.5C5.28003 1.56702 6.7843 0 8.64001 0C10.4957 0 12 1.56702 12 3.5Z" transform="translate(43 24)" fill="#43D394"/>
<rect width="18" height="7" rx="3.5" transform="translate(37 3)" fill="#43D394"/>
<rect width="36" height="2" rx="1" transform="translate(4 25)" fill="#43D394"/>
<rect width="11" height="2" rx="1" transform="translate(4 19)" fill="#43D394"/>
<rect width="11" height="2" rx="1" transform="translate(17 19)" fill="#43D394"/>
<rect width="11" height="2" rx="1" transform="translate(29 19)" fill="#43D394"/>
<rect width="11" height="2" rx="1" transform="translate(41 19)" fill="#43D394"/>
</svg>
