<svg width="42" height="55" viewBox="0 0 42 55" fill="none" xmlns="http://www.w3.org/2000/svg">
<path fill-rule="evenodd" clip-rule="evenodd" d="M27.3604 0H24.4062L20.156 4.25018L15.9058 0H13.429L9.17871 4.25018L5.37061 0.442139C2.2439 1.52979 0 4.50281 0 8V47C0 50.5684 2.33643 53.5911 5.56274 54.6219L9.43481 50.7498L13.6851 55H16.1619L20.4121 50.7498L24.6624 55H27.6165L31.8667 50.7498L35.8918 54.775C39.397 53.925 42 50.7665 42 47V8C42 4.15918 39.2932 0.950562 35.6833 0.177429L31.6106 4.25018L27.3604 0Z" fill="#06A978"/>
<path fill-rule="evenodd" clip-rule="evenodd" d="M0 1.9375C0 0.867432 0.867432 0 1.9375 0H17.3911C18.4612 0 19.3286 0.867432 19.3286 1.9375C19.3286 3.00757 18.4612 3.875 17.3911 3.875H1.9375C0.867432 3.875 0 3.00757 0 1.9375ZM22.1572 1.9375C22.1572 0.867432 23.0247 0 24.0947 0H31.0625C32.1326 0 33 0.867432 33 1.9375C33 3.00757 32.1326 3.875 31.0625 3.875H24.0947C23.0247 3.875 22.1572 3.00757 22.1572 1.9375ZM1.9375 5.8125C0.867432 5.8125 0 6.67993 0 7.75C0 8.82007 0.867432 9.6875 1.9375 9.6875H23.5195C24.5896 9.6875 25.457 8.82007 25.457 7.75C25.457 6.67993 24.5896 5.8125 23.5195 5.8125H1.9375ZM0 17.4375C0 16.3674 0.867432 15.5 1.9375 15.5H15.0339C16.104 15.5 16.9714 16.3674 16.9714 17.4375C16.9714 18.5076 16.104 19.375 15.0339 19.375H1.9375C0.867432 19.375 0 18.5076 0 17.4375ZM1.9375 21.3125C0.867432 21.3125 0 22.1799 0 23.25C0 24.3201 0.867432 25.1875 1.9375 25.1875H20.2197C21.2898 25.1875 22.1572 24.3201 22.1572 23.25C22.1572 22.1799 21.2898 21.3125 20.2197 21.3125H1.9375ZM0 29.0625C0 27.9924 0.867432 27.125 1.9375 27.125H15.0339C16.104 27.125 16.9714 27.9924 16.9714 29.0625C16.9714 30.1326 16.104 31 15.0339 31H1.9375C0.867432 31 0 30.1326 0 29.0625ZM21.2661 15.5C20.196 15.5 19.3286 16.3674 19.3286 17.4375C19.3286 18.5076 20.196 19.375 21.2661 19.375H28.2339C29.304 19.375 30.1714 18.5076 30.1714 17.4375C30.1714 16.3674 29.304 15.5 28.2339 15.5H21.2661ZM24.9856 23.25C24.9856 22.1799 25.853 21.3125 26.9231 21.3125H28.2339C29.304 21.3125 30.1714 22.1799 30.1714 23.25C30.1714 24.3201 29.304 25.1875 28.2339 25.1875H26.9231C25.853 25.1875 24.9856 24.3201 24.9856 23.25ZM21.2661 27.125C20.196 27.125 19.3286 27.9924 19.3286 29.0625C19.3286 30.1326 20.196 31 21.2661 31H25.8767C26.9468 31 27.8142 30.1326 27.8142 29.0625C27.8142 27.9924 26.9468 27.125 25.8767 27.125H21.2661Z" transform="translate(4 11)" fill="#43D394"/>
</svg>
