<svg width="55" height="46" viewBox="0 0 55 46" fill="none" xmlns="http://www.w3.org/2000/svg">
<rect width="45.7848" height="28.3866" rx="8" transform="translate(3 6)" fill="#43D394"/>
<rect width="51.279" height="34.7965" rx="8" transform="translate(0 11)" fill="#06A978"/>
<path fill-rule="evenodd" clip-rule="evenodd" d="M5.49414 0C2.45984 0 0 2.45984 0 5.4942C0 8.5285 2.45984 10.9883 5.49414 10.9883H16.4824C19.5168 10.9883 21.9768 8.5285 21.9768 5.4942C21.9768 2.45984 19.5168 0 16.4824 0H5.49414ZM9.15698 5.49414C9.15698 7.01135 7.927 8.24127 6.40991 8.24127C4.8927 8.24127 3.66284 7.01135 3.66284 5.49414C3.66284 3.97699 4.8927 2.74707 6.40991 2.74707C7.927 2.74707 9.15698 3.97699 9.15698 5.49414Z" transform="translate(33 23)" fill="#43D394"/>
</svg>
